<svg height='100px' width='100px'  fill="#000000" xmlns="http://www.w3.org/2000/svg" xmlns:xlink="http://www.w3.org/1999/xlink" version="1.1" x="0px" y="0px" viewBox="0 0 60 54" enable-background="new 0 0 60 54" xml:space="preserve"><g><path fill="#000000" d="M58,34.1V1c0-0.55-0.45-1-1-1H1C0.45,0,0,0.45,0,1v44c0,0.55,0.45,1,1,1h34c1.96,4.69,6.6,8,12,8   c7.17,0,13-5.83,13-13C60,38.47,59.26,36.11,58,34.1z M34.36,44H2V2h54v29.62c-0.17-0.16-0.35-0.31-0.53-0.46   c-0.09-0.08-0.17-0.15-0.26-0.23c-0.24-0.19-0.48-0.37-0.73-0.54c-0.09-0.07-0.18-0.13-0.28-0.2c-0.24-0.16-0.5-0.31-0.75-0.46   c-0.11-0.06-0.21-0.13-0.32-0.19c-0.08-0.04-0.15-0.08-0.23-0.12c0.18-0.39,0.11-0.85-0.22-1.15l-12-11   c-0.2-0.18-0.45-0.28-0.72-0.26c-0.27,0.01-0.52,0.13-0.69,0.33l-9.79,10.73l-4.74-4.74c-0.37-0.37-0.97-0.39-1.37-0.04L6.34,38.25   c-0.41,0.37-0.46,1-0.09,1.41C6.45,39.89,6.72,40,7,40c0.23,0,0.47-0.08,0.66-0.25l16.31-14.36l10.3,10.3   c0.2,0.2,0.47,0.3,0.74,0.29C34.36,37.52,34,39.22,34,41c0,0.49,0.03,0.98,0.09,1.46c0.01,0.07,0.02,0.15,0.03,0.22   c0.06,0.43,0.13,0.85,0.23,1.26C34.35,43.96,34.35,43.98,34.36,44z M48.78,28.14c-0.16-0.02-0.32-0.05-0.48-0.07   C47.87,28.02,47.43,28,47,28c-4.77,0-8.94,2.59-11.2,6.44c-0.04-0.05-0.06-0.11-0.11-0.16l-4.81-4.81l9.18-10.05l9.69,8.89   c-0.07-0.01-0.13-0.03-0.2-0.05C49.3,28.2,49.04,28.17,48.78,28.14z M47,52c-4.79,0-8.86-3.08-10.37-7.36   c-0.09-0.27-0.18-0.54-0.25-0.81c-0.02-0.06-0.03-0.12-0.04-0.17c-0.06-0.24-0.11-0.48-0.16-0.72c-0.02-0.13-0.04-0.27-0.06-0.4   c-0.03-0.18-0.05-0.36-0.07-0.54C36.02,41.67,36,41.34,36,41c0-6.07,4.93-11,11-11c0.43,0,0.85,0.03,1.27,0.08   c0.13,0.01,0.25,0.04,0.38,0.06c0.29,0.04,0.58,0.1,0.86,0.16c0.14,0.03,0.28,0.07,0.42,0.11c0.27,0.07,0.53,0.16,0.79,0.25   c0.13,0.05,0.27,0.09,0.4,0.15c0.3,0.12,0.58,0.25,0.87,0.4c0.08,0.04,0.17,0.08,0.25,0.12c0.34,0.19,0.67,0.39,0.99,0.61   c0.13,0.09,0.25,0.19,0.38,0.29c0.2,0.15,0.39,0.3,0.58,0.47c0.13,0.11,0.25,0.22,0.37,0.34c0.19,0.18,0.38,0.38,0.56,0.58   c0.09,0.1,0.19,0.2,0.28,0.31c0.26,0.31,0.51,0.63,0.74,0.98C57.31,36.64,58,38.74,58,41C58,47.07,53.07,52,47,52z"></path><path fill="#000000" d="M53,40h-5v-5c0-0.55-0.45-1-1-1s-1,0.45-1,1v5h-5c-0.55,0-1,0.45-1,1s0.45,1,1,1h5v5c0,0.55,0.45,1,1,1   s1-0.45,1-1v-5h5c0.55,0,1-0.45,1-1S53.55,40,53,40z"></path><path fill="#000000" d="M16,22.14c3.07,0,5.57-2.5,5.57-5.57c0-3.07-2.5-5.57-5.57-5.57s-5.57,2.5-5.57,5.57   C10.43,19.64,12.93,22.14,16,22.14z M16,13c1.97,0,3.57,1.6,3.57,3.57s-1.6,3.57-3.57,3.57s-3.57-1.6-3.57-3.57S14.03,13,16,13z"></path></g></svg>