<svg height='100px' width='100px'  fill="#000000" xmlns="http://www.w3.org/2000/svg" xmlns:xlink="http://www.w3.org/1999/xlink" version="1.1" x="0px" y="0px" viewBox="0 0 100 100" enable-background="new 0 0 100 100" xml:space="preserve"><g><path fill="none" d="M49.344,52.628c8.15,0,14.859-8.999,15.726-20.563c0.109-0.746,0.168-1.511,0.178-2.286L62.705,32.7   c1.402-3.108-3.596-11.015-3.596-11.015c-8.42,6.091-20.941,0-20.941,0c-3.78,1.49-1.99,12.118-1.99,12.117   c-0.943-0.657-1.807-1-2.513-1.177C34.705,43.92,41.327,52.628,49.344,52.628z"></path><path d="M80,64c0.717,0,1.418,0.063,2.109,0.156c-3.842-5.969-10.287-10.104-17.735-10.782c-0.095,4.315-6.491,7.801-14.373,7.801   s-14.279-3.483-14.373-7.801C23.57,54.475,14.126,64.609,14.126,76.953C14.126,90.033,24.728,90,37.807,90h24.386   c1.826,0,3.603-0.001,5.311-0.035C65.316,87.229,64,83.768,64,80C64,71.178,71.178,64,80,64z"></path><path d="M31.432,31.969c0.013,0.17,0.027,0.341,0.043,0.51c1.143,12.93,8.708,22.919,17.87,22.919   c9.282,0,16.924-10.25,17.913-23.424c0.135-0.945,0.207-1.916,0.207-2.901c0-0.985-0.072-1.955-0.207-2.901   C65.93,17.016,58.415,10,49.345,10c-9.074,0-16.588,7.02-17.913,16.181c-0.136,0.944-0.207,1.91-0.207,2.894   c0,0.4,0.015,0.796,0.038,1.189C31.295,30.839,31.35,31.409,31.432,31.969z M38.168,21.685c0,0,12.521,6.091,20.941,0   c0,0,4.998,7.907,3.596,11.015l2.543-2.921c-0.01,0.775-0.068,1.54-0.178,2.286c-0.867,11.564-7.576,20.563-15.726,20.563   c-8.017,0-14.639-8.708-15.679-20.003c0.706,0.177,1.57,0.52,2.513,1.177C36.178,33.803,34.388,23.175,38.168,21.685z"></path><path d="M80,66c-7.721,0-14,6.279-14,14s6.279,14,14,14c7.719,0,14-6.279,14-14S87.719,66,80,66z M86.557,81.688h-4.554v4.87   h-3.989v-4.87h-4.571l0.001-3.989h4.57v-4.256h3.989v4.256h4.555L86.557,81.688z"></path></g></svg>