<svg height='100px' width='100px'  fill="#000000" xmlns="http://www.w3.org/2000/svg" xmlns:xlink="http://www.w3.org/1999/xlink" version="1.1" x="0px" y="0px" viewBox="0 0 100 100" style="enable-background:new 0 0 100 100;" xml:space="preserve"><style type="text/css">
	.st0{fill-rule:evenodd;clip-rule:evenodd;}
</style><path class="st0" d="M49.8,89.4c-22.2,0-40.2-18-40.2-40.2s18-40.2,40.2-40.2C72,8.9,90,26.9,90,49.1S72,89.4,49.8,89.4z M49.8,14.9  c-18.9,0-34.2,15.3-34.2,34.2s15.3,34.2,34.2,34.2C68.7,83.3,84,68,84,49.1S68.7,14.9,49.8,14.9z M47.6,61.3c-1.2,1.2-3.2,1.2-4.4,0  L31.5,49.8c-1.2-1.2-1.2-3.1,0-4.3c1.2-1.2,3.2-1.2,4.4,0l9.5,9.3l18.2-17.9c1.2-1.2,3.2-1.2,4.4,0c1.2,1.2,1.2,3.1,0,4.3L47.6,61.3  z"></path></svg>