<svg height='100px' width='100px'  fill="#000000" xmlns="http://www.w3.org/2000/svg" xmlns:xlink="http://www.w3.org/1999/xlink" version="1.1" x="0px" y="0px" viewBox="0 0 24 24" enable-background="new 0 0 24 24" xml:space="preserve"><g><path d="M1.16,18.658c0.347,0.202,0.744,0.309,1.147,0.309h4.391c0.221,0,0.4-0.18,0.4-0.4s-0.18-0.4-0.4-0.4H2.308   c-0.228,0-0.448-0.061-0.65-0.16l5.773-5.749c0.156-0.155,0.157-0.409,0.001-0.565s-0.409-0.157-0.565-0.001l-5.803,5.778   c-0.001-0.002-0.002-0.003-0.003-0.004c-0.131-0.225-0.199-0.482-0.199-0.745V3.795c0-0.3,0.074-0.55,0.234-0.769   c6.212,5.152,9.817,7.961,10.725,8.358c0.034,0.019,0.073,0.032,0.113,0.04c0.021,0.006,0.04,0.009,0.056,0.009   c0.009-0.001,0.016,0,0.022,0c0.016,0,0.035-0.003,0.058-0.009c0.041-0.009,0.081-0.023,0.116-0.043   c0.915-0.404,4.518-3.212,10.719-8.355c0.004,0.007,0.01,0.011,0.014,0.017c0.146,0.194,0.22,0.447,0.22,0.752v12.924   c0,0.264-0.068,0.521-0.199,0.745c-0.001,0.002-0.002,0.002-0.003,0.004l-5.802-5.778c-0.156-0.156-0.409-0.155-0.565,0.001   s-0.155,0.41,0.001,0.565l5.773,5.75c-0.202,0.099-0.422,0.16-0.65,0.16h-4.392c-0.221,0-0.4,0.18-0.4,0.4s0.18,0.4,0.4,0.4h4.392   c0.403,0,0.801-0.106,1.148-0.31c0.337-0.197,0.595-0.456,0.789-0.789c0.201-0.346,0.309-0.743,0.309-1.148V3.795   c0-0.475-0.132-0.901-0.362-1.206c-0.211-0.333-0.505-0.604-0.806-0.755c-0.334-0.194-0.677-0.285-1.078-0.285H2.308   c-0.402,0-0.745,0.091-1.056,0.273C0.93,1.984,0.636,2.255,0.441,2.563C0.192,2.895,0.061,3.322,0.061,3.795v12.924   c0,0.403,0.106,0.801,0.309,1.148C0.565,18.203,0.824,18.461,1.16,18.658z M21.693,2.35c0.22,0,0.405,0.051,0.598,0.145   c-3.784,3.134-9.59,7.833-10.264,8.131c-0.84-0.391-6.573-5.03-10.32-8.132c0.185-0.094,0.372-0.144,0.6-0.144H21.693z"></path><path d="M8.115,18.566c0,2.142,1.743,3.885,3.885,3.885s3.885-1.743,3.885-3.885S14.142,14.681,12,14.681   S8.115,16.424,8.115,18.566z M15.084,18.566c0,1.701-1.383,3.084-3.084,3.084s-3.084-1.383-3.084-3.084s1.383-3.084,3.084-3.084   S15.084,16.865,15.084,18.566z"></path><path d="M11.6,16.41v1.756H9.844c-0.221,0-0.4,0.18-0.4,0.4s0.18,0.4,0.4,0.4H11.6v1.756c0,0.221,0.18,0.4,0.4,0.4   s0.4-0.18,0.4-0.4v-1.756h1.756c0.221,0,0.4-0.18,0.4-0.4s-0.18-0.4-0.4-0.4H12.4V16.41c0-0.221-0.18-0.4-0.4-0.4   S11.6,16.189,11.6,16.41z"></path></g></svg>