<svg height='100px' width='100px'  fill="#000000" xmlns="http://www.w3.org/2000/svg" xmlns:xlink="http://www.w3.org/1999/xlink" version="1.1" x="0px" y="0px" viewBox="0 0 100 100" style="enable-background:new 0 0 100 100;" xml:space="preserve"><path d="M88,74.3c0,0.8-0.7,1.5-1.5,1.5h-6v6c0,0.8-0.7,1.5-1.5,1.5s-1.5-0.7-1.5-1.5v-6h-6c-0.8,0-1.5-0.7-1.5-1.5s0.7-1.5,1.5-1.5  h6v-6c0-0.8,0.7-1.5,1.5-1.5s1.5,0.7,1.5,1.5v6h6C87.3,72.8,88,73.4,88,74.3z M95.5,74.3c0,9.1-7.4,16.5-16.5,16.5  s-16.5-7.4-16.5-16.5S69.9,57.8,79,57.8S95.5,65.2,95.5,74.3z M92.5,74.3c0-7.4-6.1-13.5-13.5-13.5s-13.5,6.1-13.5,13.5  S71.5,87.8,79,87.8S92.5,81.7,92.5,74.3z M78.9,33.2c0-0.9-0.8-1.7-1.7-1.7H14.8c-0.9,0-1.7,0.8-1.7,1.7c0,0.9,0.8,1.7,1.7,1.7h62.4  C78.2,34.8,78.9,34.1,78.9,33.2z M46,14.1L10.8,30.8h70.4L46,14.1z M49.1,68.4h10.1v-0.7H49.1V68.4z M49.4,66.7v0.6h9.4v-0.6H49.4z   M57.6,35.5h-6.9c-1.1,0-2,0.9-2,2c0,1.1,0.9,2,2,2v23.2c-0.7,0.1-1.3,0.7-1.3,1.5v2h9.4v-2c0-0.8-0.5-1.4-1.3-1.5V39.6  c1.1,0,2-0.9,2-2C59.6,36.4,58.7,35.5,57.6,35.5z M32.9,68.4H43v-0.7H32.9V68.4z M33.2,66.7v0.6h9.4v-0.6H33.2z M41.4,35.5h-6.9  c-1.1,0-2,0.9-2,2c0,1.1,0.9,2,2,2v23.2c-0.7,0.1-1.3,0.7-1.3,1.5v2h9.4v-2c0-0.8-0.5-1.4-1.3-1.5V39.6c1.1,0,2-0.9,2-2  C43.4,36.4,42.5,35.5,41.4,35.5z M16.7,68.4h10.1v-0.7H16.7V68.4z M17.1,66.7v0.6h9.4v-0.6H17.1z M25.2,35.5h-6.9c-1.1,0-2,0.9-2,2  c0,1.1,0.9,2,2,2v23.2c-0.7,0.1-1.3,0.7-1.3,1.5v2h9.4v-2c0-0.8-0.5-1.4-1.3-1.5V39.6c1.1,0,2-0.9,2-2  C27.2,36.4,26.3,35.5,25.2,35.5z M84.9,31.5c0.1,0.1,0.2,0.1,0.3,0.1c0.3,0,0.6-0.2,0.7-0.4C86,31,86,30.9,86,30.8  c0-0.3-0.2-0.6-0.4-0.7L46.4,10.8c0,0,0,0,0,0c-0.2-0.1-0.4-0.1-0.5-0.1c0,0,0,0,0,0c0,0-0.1,0-0.1,0h0c0,0,0,0,0,0c0,0,0,0,0,0  L6.5,30.1c-0.4,0.2-0.5,0.7-0.4,1s0.7,0.5,1,0.4L46,12.4L84.9,31.5z M10.8,76.7c-0.9,0-1.6,0.7-1.6,1.6c0,0.9,0.7,1.6,1.6,1.6h50  c-0.3-1-0.5-2.1-0.7-3.1H10.8z M12.7,72.8c-0.9,0-1.6,0.7-1.6,1.6s0.7,1.6,1.6,1.6h47.4c0-0.5-0.1-1.1-0.1-1.6c0-0.5,0-1,0.1-1.5  H12.7z M60.8,68.9h-46c-0.9,0-1.6,0.7-1.6,1.6s0.7,1.6,1.6,1.6h45.4C60.2,70.9,60.5,69.9,60.8,68.9z M73.7,56V39.6c1.1,0,2-0.9,2-2  c0-1.1-0.9-2-2-2h-6.9c-1.1,0-2,0.9-2,2c0,1.1,0.9,2,2,2v20.1C68.8,58,71.2,56.7,73.7,56z"></path></svg>