<svg height='100px' width='100px'  fill="#000000" xmlns="http://www.w3.org/2000/svg" viewBox="0 0 64 64" x="0px" y="0px"><title>logo, branding</title><g><path d="M55.006,45.87l4.113-4.162a1,1,0,0,0-.711-1.7H48.835c-.013,0-.025.008-.038.008a2.6,2.6,0,0,0-.379.09.985.985,0,0,0-.15.1.936.936,0,0,0-.157.121.954.954,0,0,0-.1.142,1.026,1.026,0,0,0-.109.187c0,.012-.014.02-.018.033C46.21,45.673,40.271,48.65,32,48.65s-14.21-2.977-15.888-7.963c0-.013-.014-.021-.018-.033a.993.993,0,0,0-.107-.184.923.923,0,0,0-.1-.147.965.965,0,0,0-.148-.113,1,1,0,0,0-.16-.108.949.949,0,0,0-.168-.047,1,1,0,0,0-.21-.042c-.013,0-.024-.008-.037-.008H5.592a1,1,0,0,0-.711,1.7L8.994,45.87,4.859,50.325a1,1,0,0,0,.733,1.68h8.9c2.563,6.1,10.03,6.645,17.505,6.645s14.942-.543,17.505-6.645h8.9a1,1,0,0,0,.733-1.68Zm-43.895.658a1,1,0,0,0-.021-1.383l-3.1-3.14h6.179v8H7.885ZM32,56.65c-8.482,0-14.1-.978-15.835-5.813V44.8C19.219,48.513,24.833,50.65,32,50.65S44.781,48.513,47.835,44.8v6.042C46.1,55.672,40.482,56.65,32,56.65Zm17.835-6.645v-8h6.179l-3.1,3.14a1,1,0,0,0-.021,1.383l3.226,3.477ZM45.7,23.231c-.017-.019-.029-.039-.047-.056a1,1,0,0,0-.253-.181L32.437,16.686a1,1,0,0,0-.875,0L18.6,22.994a1,1,0,0,0-.253.181c-.018.017-.03.037-.047.056a.949.949,0,0,0-.153.228.876.876,0,0,0-.04.088.989.989,0,0,0-.07.347V38.03a1,1,0,0,0,.563.9l12.965,6.308c.008,0,.017,0,.024.006a.95.95,0,0,0,.828,0c.007,0,.016,0,.023-.006L45.4,38.929a1,1,0,0,0,.563-.9V23.894a.989.989,0,0,0-.07-.347.876.876,0,0,0-.04-.088A.949.949,0,0,0,45.7,23.231ZM32,18.7l10.68,5.2L32,29.089,21.32,23.894ZM20.034,25.492,31,30.827V42.739L20.034,37.4ZM33,42.739V30.827l10.966-5.335V37.4Zm-2-31.15V6.35a1,1,0,0,1,2,0v5.239a1,1,0,0,1-2,0Zm10.856,5.083a1,1,0,0,1,0-1.414l3.7-3.7a1,1,0,0,1,1.414,1.414l-3.7,3.705a1,1,0,0,1-1.415,0Zm-24.831-3.7a1,1,0,0,1,1.414-1.414l3.7,3.7a1,1,0,0,1-1.415,1.414Z"></path></g></svg>