<svg height='100px' width='100px'  fill="#000000" xmlns:dc="http://purl.org/dc/elements/1.1/" xmlns:cc="http://creativecommons.org/ns#" xmlns:rdf="http://www.w3.org/1999/02/22-rdf-syntax-ns#" xmlns:svg="http://www.w3.org/2000/svg" xmlns="http://www.w3.org/2000/svg" xmlns:sodipodi="http://sodipodi.sourceforge.net/DTD/sodipodi-0.dtd" xmlns:inkscape="http://www.inkscape.org/namespaces/inkscape" version="1.1" x="0px" y="0px" viewBox="0 0 100 100"><g transform="translate(0,-952.36218)"><path style="font-size:medium;font-style:normal;font-variant:normal;font-weight:normal;font-stretch:normal;text-indent:0;text-align:start;text-decoration:none;line-height:normal;letter-spacing:normal;word-spacing:normal;text-transform:none;direction:ltr;block-progression:tb;writing-mode:lr-tb;text-anchor:start;baseline-shift:baseline;opacity:1;color:#000000;fill:#000000;fill-opacity:1;stroke:none;stroke-width:2;marker:none;visibility:visible;display:inline;overflow:visible;enable-background:accumulate;font-family:Sans;-inkscape-font-specification:Sans" d="M 20.8125 19 A 1.0001 1.0001 0 0 0 20 20 L 20 28.53125 L 8 28.53125 A 1.0001 1.0001 0 0 0 7 29.53125 L 7 63.75 C 7 67.9567 10.419711 71 14.4375 71 L 55.6875 71 C 59.149603 76.972663 65.609074 81 73 81 C 84.033865 81 93 72.0333 93 61 C 93 49.9657 84.033862 41 73 41 C 72.665631 41 72.330379 41.014975 72 41.03125 L 72 20 A 1.0001 1.0001 0 0 0 71 19 L 21 19 A 1.0001 1.0001 0 0 0 20.8125 19 z M 22 21 L 70 21 L 70 41.25 C 63.903267 42.173625 58.704774 45.873986 55.71875 51 L 30 51 A 1.0001 1.0001 0 0 0 29.8125 51 A 1.0043849 1.0043849 0 0 0 30 53 L 54.65625 53 C 53.713098 55.154018 53.156656 57.531449 53.03125 60 L 30 60 A 1.0001 1.0001 0 0 0 29.8125 60 A 1.0043849 1.0043849 0 0 0 30 62 L 53.03125 62 C 53.153353 64.478448 53.709974 66.837874 54.65625 69 L 19.53125 69 C 20.994629 67.7127 22 65.9216 22 63.75 L 22 21 z M 29.8125 28 A 1.0001 1.0001 0 0 0 29 29 L 29 43 A 1.0001 1.0001 0 0 0 30 44 L 62 44 A 1.0001 1.0001 0 0 0 63 43 L 63 29 A 1.0001 1.0001 0 0 0 62 28 L 30 28 A 1.0001 1.0001 0 0 0 29.8125 28 z M 31 30 L 61 30 L 61 42 L 31 42 L 31 30 z M 9 30.53125 L 20 30.53125 L 20 63.75 C 20 66.6901 17.67442 68.74005 14.875 68.96875 A 1.0001 1.0001 0 0 0 14.6875 69 L 14.4375 69 C 11.390059 69 9 66.9013 9 63.75 L 9 30.53125 z M 73 43 C 82.952974 43 91 51.0465 91 61 C 91 70.9523 82.952971 79 73 79 C 63.047041 79 55 70.9523 55 61 C 55 51.0465 63.047039 43 73 43 z M 72.875 51.96875 A 1.0001 1.0001 0 0 0 72 53 L 72 60 L 65 60 A 1.0001 1.0001 0 0 0 64.8125 60 A 1.0043849 1.0043849 0 0 0 65 62 L 72 62 L 72 69 A 1.0001 1.0001 0 1 0 74 69 L 74 62 L 81 62 A 1.0001 1.0001 0 1 0 81 60 L 74 60 L 74 53 A 1.0001 1.0001 0 0 0 72.875 51.96875 z " transform="translate(0,952.36218)"></path></g></svg>