<svg height='100px' width='100px'  fill="#000000" xmlns="http://www.w3.org/2000/svg" xmlns:xlink="http://www.w3.org/1999/xlink" xml:space="preserve" version="1.1" style="shape-rendering:geometricPrecision;text-rendering:geometricPrecision;image-rendering:optimizeQuality;" viewBox="0 0 1.211 0.977" x="0px" y="0px" fill-rule="evenodd" clip-rule="evenodd"><defs><style type="text/css">
   
    .fil0 {fill:#000000;fill-rule:nonzero}
   
  </style></defs><g><path class="fil0" d="M0.098 0l1.015 0c0.027,0 0.052,0.011 0.069,0.029 0.018,0.017 0.029,0.042 0.029,0.069l0 0.781c0,0.027 -0.011,0.051 -0.029,0.069 -0.017,0.018 -0.042,0.029 -0.069,0.029l-1.015 0c-0.027,0 -0.052,-0.011 -0.069,-0.029 -0.018,-0.018 -0.029,-0.042 -0.029,-0.069l0 -0.781c0,-0.027 0.011,-0.052 0.029,-0.069 0.017,-0.018 0.042,-0.029 0.069,-0.029zm0.605 0.547c0.011,0 0.02,0.009 0.02,0.019 0,0.011 -0.009,0.02 -0.02,0.02l-0.078 0 0 0.078c0,0.011 -0.009,0.02 -0.02,0.02 -0.01,0 -0.019,-0.009 -0.019,-0.02l0 -0.078 -0.078 0c-0.011,0 -0.02,-0.009 -0.02,-0.02 0,-0.01 0.009,-0.019 0.02,-0.019l0.078 0 0 -0.078c0,-0.011 0.009,-0.02 0.019,-0.02 0.011,0 0.02,0.009 0.02,0.02l0 0.078 0.078 0zm-0.098 -0.195c0.06,0 0.113,0.024 0.152,0.063 0.039,0.038 0.063,0.092 0.063,0.151 0,0.06 -0.024,0.113 -0.063,0.152 -0.039,0.039 -0.092,0.063 -0.152,0.063 -0.059,0 -0.113,-0.024 -0.151,-0.063 -0.039,-0.039 -0.063,-0.092 -0.063,-0.152 0,-0.059 0.024,-0.113 0.063,-0.151 0.038,-0.039 0.092,-0.063 0.151,-0.063zm0.125 0.09c-0.032,-0.032 -0.076,-0.051 -0.125,-0.051 -0.048,0 -0.092,0.019 -0.124,0.051 -0.032,0.032 -0.051,0.076 -0.051,0.124 0,0.049 0.019,0.093 0.051,0.125 0.032,0.032 0.076,0.051 0.124,0.051 0.049,0 0.093,-0.019 0.125,-0.051 0.032,-0.032 0.051,-0.076 0.051,-0.125 0,-0.048 -0.019,-0.092 -0.051,-0.124zm-0.535 -0.364c0.011,0 0.02,0.009 0.02,0.02 0,0.01 -0.009,0.019 -0.02,0.019 -0.01,0 -0.019,-0.009 -0.019,-0.019 0,-0.011 0.009,-0.02 0.019,-0.02zm-0.078 0c0.011,0 0.02,0.009 0.02,0.02 0,0.01 -0.009,0.019 -0.02,0.019 -0.011,0 -0.019,-0.009 -0.019,-0.019 0,-0.011 0.008,-0.02 0.019,-0.02zm0.156 0.039c-0.011,0 -0.019,-0.009 -0.019,-0.019 0,-0.011 0.008,-0.02 0.019,-0.02l0.235 0c0.01,0 0.019,0.009 0.019,0.02 0,0.01 -0.009,0.019 -0.019,0.019l-0.235 0zm-0.234 0.039l1.133 0 0 -0.058c0,-0.016 -0.007,-0.031 -0.017,-0.042 -0.011,-0.01 -0.026,-0.017 -0.042,-0.017l-1.015 0c-0.016,0 -0.031,0.007 -0.042,0.017 -0.01,0.011 -0.017,0.026 -0.017,0.042l0 0.058zm1.133 0.039l-1.133 0 0 0.684c0,0.016 0.007,0.031 0.017,0.041 0.011,0.011 0.026,0.017 0.042,0.017l1.015 0c0.016,0 0.031,-0.006 0.042,-0.017 0.01,-0.01 0.017,-0.025 0.017,-0.041l0 -0.684z"></path></g></svg>