<svg height='100px' width='100px'  fill="#000000" xmlns="http://www.w3.org/2000/svg" xmlns:xlink="http://www.w3.org/1999/xlink" viewBox="0 0 100 100" version="1.1" x="0px" y="0px"><title>Artboard 1 Copy 27</title><desc>Created with Sketch.</desc><g stroke="none" stroke-width="1" fill="none" fill-rule="evenodd"><g fill="#000000"><path d="M77.6840746,44.281539 L51.6210746,31.293539 C50.4830746,30.730539 49.1120746,31.194539 48.5430746,32.323539 C47.9780746,33.457539 48.4400746,34.835539 49.5730746,35.402539 L72.5230746,46.838539 L49.0800746,58.454539 L25.8460746,46.651539 C25.5380746,46.338539 25.1270746,46.155539 24.6820746,46.060539 L12.4290746,39.836539 L49.0800746,21.845539 L86.6550746,39.836539 L77.6840746,44.281539 Z M69.2380746,70.998539 C47.6090746,85.485539 30.1420746,71.744539 26.5080746,68.489539 L26.5080746,52.135539 L48.0280746,63.067539 C48.3550746,63.233539 48.7110746,63.315539 49.0670746,63.315539 C49.4170746,63.315539 49.7640746,63.237539 50.0870746,63.078539 L69.2380746,53.588539 L69.2380746,70.998539 Z M92.8830746,37.730539 L50.0570746,17.225539 C49.4230746,16.920539 48.6860746,16.925539 48.0570746,17.236539 L6.28407462,37.741539 C5.50207462,38.124539 5.00707462,38.915539 5.00007462,39.784539 C4.99307462,40.653539 5.47907462,41.451539 6.25407462,41.845539 L21.9200746,49.804539 L21.9200746,69.481539 C21.9200746,70.086539 22.1590746,70.669539 22.5850746,71.099539 C22.7420746,71.256539 33.7070746,82.032539 49.6340746,82.030539 C56.5880746,82.030539 64.4930746,79.973539 72.8540746,74.081539 C73.4630746,73.651539 73.8260746,72.952539 73.8260746,72.206539 L73.8260746,51.314539 L76.5010746,49.989539 L76.5010746,66.470539 C76.5010746,67.738539 77.5270746,68.764539 78.7960746,68.764539 C80.0640746,68.764539 81.0900746,67.738539 81.0900746,66.470539 L81.0900746,47.715539 L92.9130746,41.857539 C93.6990746,41.467539 94.1940746,40.662539 94.1870746,39.784539 C94.1810746,38.906539 93.6740746,38.111539 92.8830746,37.730539 L92.8830746,37.730539 Z"></path></g></g></svg>