<svg height='100px' width='100px'  fill="#000000" xmlns="http://www.w3.org/2000/svg" xmlns:xlink="http://www.w3.org/1999/xlink" version="1.1" x="0px" y="0px" viewBox="0 0 100 100" style="enable-background:new 0 0 100 100;" xml:space="preserve"><g><path d="M30.8493958,34.7792969c-0.2299805-0.2402344-0.5698242-0.3398438-0.8999023-0.2797852   c-0.0600586,0.0200195-0.1298828,0.0395508-0.1899414,0.0595703s-0.1098633,0.0600586-0.1699219,0.090332   c-0.050293,0.0400391-0.1000977,0.0800781-0.1499023,0.1298828c-0.1899414,0.1801758-0.2900391,0.4399414-0.2900391,0.7001953   c0,0.1298828,0.0200195,0.2597656,0.0698242,0.3896484c0.050293,0.1201172,0.1298828,0.2299805,0.2202148,0.3203125   c0.0498047,0.0498047,0.0996094,0.0898438,0.1499023,0.1298828c0.0600586,0.0297852,0.1098633,0.0600586,0.1699219,0.0898438   c0.0600586,0.0200195,0.1298828,0.0400391,0.1899414,0.050293c0.0703125,0.0200195,0.1298828,0.0200195,0.2001953,0.0200195   c0.2597656,0,0.5200195-0.1000977,0.699707-0.2900391c0.1000977-0.090332,0.1704102-0.2001953,0.2202148-0.3203125   c0.0498047-0.1298828,0.0800781-0.2597656,0.0800781-0.3896484c0-0.1303711-0.0302734-0.2602539-0.0800781-0.3803711   C31.0198059,34.9794922,30.9494934,34.8691406,30.8493958,34.7792969z"></path><path d="M38.959259,34.4829102c0,0.5522461,0.4477539,1,1,1h13c0.5522461,0,1-0.4477539,1-1s-0.4477539-1-1-1h-13   C39.4070129,33.4829102,38.959259,33.9306641,38.959259,34.4829102z"></path><path d="M48.959259,37.4829102h-9c-0.5522461,0-1,0.4477539-1,1s0.4477539,1,1,1h9c0.5522461,0,1-0.4477539,1-1   S49.5115051,37.4829102,48.959259,37.4829102z"></path><path d="M30.1462708,37.4829102c-0.2618408,0-0.4959106,0.1060181-0.6741943,0.270752   c-0.3885498-0.2947388-0.8237915-0.5300903-1.300415-0.6716309c0.0556641-0.2695313,0.0839844-0.5463867,0.0839844-0.8261719   c0-2.2495117-1.8300781-4.0795898-4.0795898-4.0795898c-2.25,0-4.0800781,1.8300781-4.0800781,4.0795898   c0,0.2797852,0.0283203,0.5566406,0.0839844,0.8266602c-0.3471069,0.1033936-0.6713867,0.2595825-0.9746094,0.4476318v-5.6380615   h9.940918v0.5908203c0,0.5522461,0.4477539,1,1,1s1-0.4477539,1-1v-1.5908203c0-0.5522461-0.4477539-1-1-1h-11.940918   c-0.5522461,0-1,0.4477539-1,1v15.3115234c0,0.5522461,0.4477539,1,1,1h11.940918c0.5522461,0,1-0.4477539,1-1v-7.7207031   C31.1462708,37.9306641,30.6985168,37.4829102,30.1462708,37.4829102z M19.2053528,45.2036133v-3.8065186   c0.0195313-0.0780029,0.0478516-0.1528931,0.0478516-0.2369385l0.0063477-0.3286133   c0.0800781-1.074707,0.9907227-1.9169922,2.0732422-1.9169922c0.0664063,0,0.1328125,0.0039063,0.1982422,0.0078125   c0.3828125,0.0244141,0.734375-0.1708984,0.9228516-0.4975586c0.1894531-0.3266602,0.1782227-0.7319336-0.027832-1.0478516   c-0.2158203-0.3305664-0.3300781-0.7182617-0.3300781-1.1210938c0-1.1464844,0.9331055-2.0795898,2.0800781-2.0795898   c1.1464844,0,2.0795898,0.9331055,2.0795898,2.0795898c0,0.402832-0.1142578,0.7905273-0.3300781,1.1210938   c-0.2060547,0.315918-0.2172852,0.7211914-0.027832,1.0478516c0.1889648,0.3271484,0.5410156,0.5239258,0.9228516,0.4975586   c0.0654297-0.0039063,0.1318359-0.0078125,0.1982422-0.0078125c1.0825195,0,1.9931641,0.8422852,2.0737305,1.9291992   l0.0058594,0.3164063c0,0.0840454,0.0283203,0.1589355,0.0478516,0.2369385v3.8065186H19.2053528z"></path><path d="M30.1462708,47.7553711H24.959259c-0.5522461,0-1,0.4477539-1,1s0.4477539,1,1,1h4.1870117v2.4663086h-9.940918V49.734375   c0.4545898-0.0942383,0.7958984-0.496582,0.7958984-0.9790039c0-0.5522461-0.4477539-1-1-1h-0.7958984   c-0.5522461,0-1,0.4477539-1,1v4.4663086c0,0.5522461,0.4477539,1,1,1h11.940918c0.5522461,0,1-0.4477539,1-1v-4.4663086   C31.1462708,48.203125,30.6985168,47.7553711,30.1462708,47.7553711z"></path><path d="M21.1096497,49.309082c0.0400391,0.0600586,0.0800781,0.1103516,0.1201172,0.1503906   c0.0996094,0.0996094,0.2099609,0.1699219,0.3295898,0.2197266c0.1201172,0.050293,0.25,0.0800781,0.3803711,0.0800781   c0.2700195,0,0.5200195-0.1098633,0.7099609-0.2998047c0.1899414-0.1801758,0.2900391-0.4399414,0.2900391-0.7001953   c0-0.2700195-0.1000977-0.5297852-0.2900391-0.7099609c-0.050293-0.0498047-0.1000977-0.0898438-0.1499023-0.1201172   c-0.0600586-0.0400391-0.1103516-0.0698242-0.1801758-0.1000977c-0.0600586-0.0200195-0.1201172-0.0400391-0.1801758-0.0498047   c-0.199707-0.0400391-0.3999023-0.0200195-0.5800781,0.0498047c-0.1196289,0.050293-0.2299805,0.1303711-0.3295898,0.2202148   c-0.1801758,0.1899414-0.2900391,0.4399414-0.2900391,0.7099609c0,0.0600586,0.0097656,0.1298828,0.0200195,0.1899414   c0.0097656,0.0703125,0.0297852,0.1298828,0.0600586,0.1899414C21.0393372,49.1992188,21.0696106,49.2592773,21.1096497,49.309082z   "></path><path d="M41.959259,46.9228516c0.5522461,0,1-0.4477539,1-1s-0.4477539-1-1-1h-4.199707V32.1328125h0.9697266   c0.5522461,0,1-0.4477539,1-1s-0.4477539-1-1-1H36.759552c-0.5522461,0-1,0.4477539-1,1v14.7900391c0,0.5522461,0.4477539,1,1,1   H41.959259z"></path><path d="M46.1594543,32.1328125h8.5600586v0.3500977c0,0.5522461,0.4477539,1,1,1s1-0.4477539,1-1v-1.3500977   c0-0.5522461-0.4477539-1-1-1h-9.5600586c-0.5522461,0-1,0.4477539-1,1S45.6072083,32.1328125,46.1594543,32.1328125z"></path><path d="M42.0593567,32.0493164c0.1201172,0.0600586,0.25,0.0800781,0.3803711,0.0800781   c0.1396484,0,0.2597656-0.0200195,0.3896484-0.0800781c0.1201172-0.0498047,0.2299805-0.1201172,0.3203125-0.2099609   c0.1899414-0.1899414,0.2900391-0.4501953,0.2900391-0.7099609c0-0.0600586,0-0.1298828-0.0200195-0.1899414   c-0.0102539-0.0703125-0.0302734-0.1303711-0.050293-0.1899414c-0.0297852-0.0600586-0.0600586-0.1201172-0.0898438-0.1704102   c-0.0400391-0.0595703-0.0800781-0.1098633-0.1298828-0.159668c-0.090332-0.090332-0.2001953-0.1601563-0.3203125-0.2099609   c-0.25-0.1000977-0.5200195-0.1000977-0.7700195,0c-0.1196289,0.0498047-0.2299805,0.1196289-0.3198242,0.2099609   c-0.0498047,0.0498047-0.0898438,0.1000977-0.1298828,0.159668c-0.0302734,0.050293-0.0600586,0.1103516-0.0898438,0.1704102   c-0.0200195,0.0595703-0.0400391,0.1196289-0.0600586,0.1899414c-0.0102539,0.0600586-0.0200195,0.1298828-0.0200195,0.1899414   c0,0.2597656,0.1098633,0.5200195,0.2998047,0.7099609C41.8293762,31.9291992,41.9397278,31.9995117,42.0593567,32.0493164z"></path><path d="M44.959259,41.4829102h-5c-0.5522461,0-1,0.4477539-1,1s0.4477539,1,1,1h5c0.5522461,0,1-0.4477539,1-1   S45.5115051,41.4829102,44.959259,41.4829102z"></path><path d="M89.2068176,75.6723633l-6.9970703-6.9970703V25.7094727v-9c0-0.5522461-0.4477539-1-1-1h-70c-0.5522461,0-1,0.4477539-1,1   v9v43c0,0.5522461,0.4477539,1,1,1h36.8256836l0.3271484,0.3271484c0.7797852,0.7792969,1.8032227,1.1689453,2.8271484,1.1689453   s2.0478516-0.3896484,2.8276367-1.1689453l0.3271484-0.3271484h15.7714233l1.2097778,1.2097168l-0.0622559,0.0622559   c-0.7661133,0.7866211-0.762207,2.0537109,0.0092773,2.8251953l9.8999023,9.8999023   c0.3891602,0.3896484,0.9008789,0.5839844,1.4121094,0.5839844s1.0229492-0.1943359,1.4121094-0.5839844l5.2099609-5.2099609   c0,0,0.0004883,0,0.0004883-0.0004883C89.9846497,77.7177734,89.9846497,76.4511719,89.2068176,75.6723633z M12.2097473,17.7094727   h68v7h-68V17.7094727z M12.2097473,67.7094727v-41h68V66.675293l-0.902832-0.902832   c-0.7714844-0.7714844-2.0385742-0.7753906-2.8344727,0l-0.0527344,0.0527344l-9.0955811-9.0955811l8.2127686-8.2130127   c0.1921997-0.1920776,0.361145-0.4009399,0.5080566-0.6223145c0.0285034-0.0430908,0.0455322-0.0909424,0.0721436-0.1348267   c0.1104126-0.1812134,0.21521-0.3653564,0.2948608-0.5610962c0.0165405-0.0407715,0.0227661-0.0841675,0.0379028-0.1253662   c0.0742188-0.2012939,0.1417847-0.4052124,0.1827393-0.6175537c0.0127563-0.065979,0.0100098-0.1334229,0.0194702-0.1998291   c0.0264893-0.1870728,0.0552368-0.3739014,0.0552368-0.5661621s-0.0287476-0.3790894-0.0552368-0.5661621   c-0.0094604-0.0664063-0.0067139-0.1338501-0.0194702-0.1998291c-0.0409546-0.2123413-0.1085205-0.4162598-0.1827393-0.6175537   c-0.0151367-0.0411987-0.0213623-0.0845947-0.0379028-0.1253662c-0.0796509-0.1957397-0.1844482-0.3798828-0.2948608-0.5610962   c-0.0266113-0.0438843-0.0436401-0.0917358-0.0721436-0.1348267c-0.1469116-0.2213745-0.3158569-0.4302368-0.5080566-0.6223145   L64.4167786,31.7426758c-0.7543945-0.7548828-1.7583008-1.1708984-2.8271484-1.1708984   c-1.0683594,0-2.0722656,0.4160156-2.8271484,1.1708984L37.2429504,53.262207   c-0.7548828,0.7548828-1.1708984,1.7587891-1.1708984,2.8271484c0,1.0688477,0.4160156,2.0727539,1.1708984,2.8271484   l8.7926025,8.7929688H12.2097473z M49.7766418,68.6225586l-0.6183472-0.6183472   c-0.0005493-0.0005493-0.0007324-0.0012207-0.0012817-0.00177l-10.5-10.5   c-0.3769531-0.3769531-0.5849609-0.8789063-0.5849609-1.4130859s0.2080078-1.0356445,0.5849609-1.4130859l21.5195313-21.5195313   c0.7548828-0.7539063,2.0722656-0.7539063,2.8261719,0l11.1201172,11.1196289   c0.0964966,0.0964966,0.1807861,0.2006836,0.253418,0.3103638c0.0196533,0.0296021,0.0319824,0.0629272,0.0499268,0.0934448   c0.048645,0.0828247,0.0974731,0.1657715,0.1331787,0.253479c0.0166016,0.0407104,0.024353,0.0845947,0.038208,0.1263428   c0.0267334,0.0807495,0.0559692,0.1609497,0.0721436,0.2438354c0.024353,0.1257324,0.0375977,0.2546387,0.0375977,0.3856201   s-0.0132446,0.2598877-0.0375977,0.3856201c-0.0161743,0.0828857-0.0454102,0.1630859-0.0721436,0.2438354   c-0.013855,0.041748-0.0216064,0.0856323-0.038208,0.1263428c-0.0357056,0.0877075-0.0845337,0.1706543-0.1331787,0.253479   c-0.0179443,0.0305176-0.0302734,0.0638428-0.0499268,0.0934448c-0.0726318,0.1096802-0.1569214,0.2138672-0.253418,0.3103638   l-8.9199219,8.9199219l-3.6801758,3.6801758l-8.300293,8.2998047c-0.0005493,0.0005493-0.0008545,0.0013428-0.0014038,0.0018921   l-0.6182251,0.6182251C51.8235168,69.4018555,50.5559387,69.4008789,49.7766418,68.6225586z M56.3444519,67.7094727   l5.885437-5.8856201l5.8856201,5.8856201H56.3444519z M71.2373352,68.0027466   c-0.0001221-0.0001221-0.0001221-0.0001831-0.0002441-0.0003052L63.6440125,60.40979l2.2660522-2.2661133l9.0955811,9.0955811   l-2.2658691,2.2658691L71.2373352,68.0027466z M82.5867004,82.2924805l-9.8999023-9.90625l5.2060547-5.199707l2.2299805,2.2299805   c0.0010376,0.0010376,0.0026245,0.0014038,0.0036621,0.0024414l7.666748,7.6625977L82.5867004,82.2924805z"></path><path d="M32.2097473,20.3745117h-2c-0.5522461,0-1,0.4477539-1,1s0.4477539,1,1,1h2c0.5522461,0,1-0.4477539,1-1   S32.7619934,20.3745117,32.2097473,20.3745117z"></path><path d="M25.2097473,20.2094727h-2c-0.5522461,0-1,0.4477539-1,1s0.4477539,1,1,1h2c0.5522461,0,1-0.4477539,1-1   S25.7619934,20.2094727,25.2097473,20.2094727z"></path><path d="M18.2097473,20.0444336h-2c-0.5522461,0-1,0.4477539-1,1s0.4477539,1,1,1h2c0.5522461,0,1-0.4477539,1-1   S18.7619934,20.0444336,18.2097473,20.0444336z"></path></g></svg>