<svg height='100px' width='100px'  fill="#000000" xmlns="http://www.w3.org/2000/svg" data-name="Layer 1" viewBox="0 0 100 100" x="0px" y="0px"><title>12</title><g data-name="Group"><path data-name="Compound Path" d="M50,9.4A40.6,40.6,0,1,0,90.6,50,40.6,40.6,0,0,0,50,9.4Zm0,75.2A34.6,34.6,0,1,1,84.6,50,34.6,34.6,0,0,1,50,84.6Z"></path><path data-name="Path" d="M64,37.7,45.2,55.5l-8.6-8.8a3,3,0,1,0-4.3,4.2L43,61.8a2.7,2.7,0,0,0,2.1.9,3.4,3.4,0,0,0,2.1-.8L68.1,42.1a3,3,0,0,0,.2-4.2A3.1,3.1,0,0,0,64,37.7Z"></path></g></svg>