<svg height='100px' width='100px'  fill="#188cb8" xmlns="http://www.w3.org/2000/svg" xmlns:xlink="http://www.w3.org/1999/xlink" version="1.1" x="0px" y="0px" viewBox="0 0 100 100" enable-background="new 0 0 100 100" xml:space="preserve"><g><path d="M84.9,48.9c-0.4-0.2-0.8-0.4-1.2-0.5c-0.2-0.1-0.7-0.2-1.4-0.2c-2-9.3-7.3-15.1-8.3-16.1l0-9.5l2.6-1.3l3.1-1.9   c0.2-0.1,0.3-0.3,0.2-0.5c0-0.2-0.1-0.4-0.3-0.4L49.7,5.1c-0.1-0.1-0.3-0.1-0.4,0L19.5,18.5c-0.2,0.1-0.3,0.2-0.3,0.4   c0,0.2,0.1,0.4,0.2,0.5l1.2,0.8l2.5,1.3l0,8.6c0,0,0,0,0,0l-3.9,8.4c-0.1,0.1-0.1,0.2,0,0.4l0,0.1c0,0.2,0,0.3,0.1,0.4   c0.1,0.1,0.2,0.2,0.4,0.2h1.8c-0.9,2.2-2.2,6.1-2.9,9.6c-0.2,0-0.4,0-0.6,0c-1.1,0-1.8,0.3-1.8,0.3c-1.8,0.7-3.1,1.9-3.9,3.6   c-1.4,3.2-1,8,1.5,14.4c4,10.7,10.5,11.9,11.9,12.1c2.1,2.7,5.2,5.6,7.2,7c-0.6,0.7-0.9,1.8-0.8,3.1c0.1,2.2,1.4,4.8,4.6,5.4   c0,0,0.1,0,0.1,0c0.4,0,1-0.2,1.4-0.6c0.5,0.3,1,0.5,1.5,0.6c0,0,0,0,0.1,0c0,0,0.1,0,0.1,0c0.3,0,0.8-0.3,1.1-0.7   c0.4,0.3,0.9,0.4,1.2,0.4c0.1,0,0.2,0,0.3,0c0.7-0.1,1.6-0.6,1.9-2.3c0.7-0.5,1.6-1.3,2.1-2.2c1.1,0.1,3.7,0.1,5.8,0.1   c0.9,0,1.6,0,2.1,0c0.5,0.9,1.4,1.5,2,2c0.4,1.6,1.2,2.1,1.9,2.3c0.1,0,0.2,0,0.3,0c0.3,0,0.7-0.1,1.2-0.4c0.4,0.5,0.8,0.7,1.1,0.7   c0,0,0.1,0,0.1,0c0,0,0,0,0.1,0c0.5-0.1,1-0.3,1.5-0.6c0.4,0.4,1,0.6,1.4,0.6c0,0,0.1,0,0.1,0c3.2-0.6,4.5-3.2,4.6-5.4   c0.1-1.3-0.2-2.4-0.8-3.1c2.3-1.6,6.1-5.3,7.6-7.5c1.3-0.2,7.7-1.8,11.3-12.6C90.5,54.9,87.8,50.6,84.9,48.9z M72.9,28l-22.5,12   L24.2,27l0-5l25.6,13c0.1,0,0.2,0.1,0.2,0.1c0.1,0,0.2,0,0.2-0.1l22.7-11.8L72.9,28z M21.1,19.3L20.8,19l28.7-13l28.7,13L76,20.4   l-2.7,1.4c-0.1,0-0.2,0.1-0.2,0.1L50,34L25.3,21.4l24.2-2.5c0.3,0,0.5-0.3,0.5-0.6c0-0.3-0.3-0.5-0.6-0.5l-25.7,2.7c0,0,0,0,0,0   L21.1,19.3z M23.6,31.6l3.3,7h-6.6L23.6,31.6z M14.6,67.1c-2.3-6.1-2.8-10.7-1.5-13.6c0.7-1.5,1.8-2.5,3.4-3.1c0,0,0.6-0.2,1.4-0.2   c0.3,0,0.6,0,0.9,0.1c0,0,0,0,0,0c0,0,0,0,0,0c2.4,0.4,6,2.6,8.5,11.1c3.2,10.9-0.9,16.2-1.8,17.1C24.4,78.4,18.4,77,14.6,67.1z    M36.6,94c-3.3-0.7-3.7-3.5-3.7-4.4c-0.1-1.5,0.4-2.5,0.8-2.6c0.3-0.1,0.5-0.1,0.7-0.1c0.5,0,0.9,0.2,1.3,0.4c0,1,0.2,4.1,1.6,6.4   C37.1,93.9,36.8,94,36.6,94z M39.5,94c-0.4-0.1-0.9-0.3-1.2-0.7c-1.5-2.2-1.6-5.7-1.6-6.3c0.1-0.3,0.3-0.6,0.6-0.8   c0.9-0.4,1.6-0.2,2.2,0.3c0.1,0.9,0.4,4.7,0.6,6.7C40,93.8,39.7,93.9,39.5,94z M42.1,93.7c-0.3,0.1-0.7-0.1-1-0.5   c-0.2-2.1-0.5-6-0.6-6.7c0.1-0.3,0.3-0.6,0.6-0.7c0.2-0.1,0.4-0.1,0.5-0.1c0.5,0,0.9,0.4,1.1,0.7c0.1,0.3,0.9,2.5,0.5,5.6   C43,93.5,42.3,93.6,42.1,93.7z M44.4,91c0.1-1.9-0.2-3.4-0.4-4.2c0.8,0.1,1.8,0.5,1.8,1.7C45.9,89.4,45.2,90.3,44.4,91z M46.8,89.2   c0.1-0.3,0.1-0.5,0.1-0.8c-0.1-1.8-1.8-2.6-3.3-2.7c-0.7-1-1.7-1.3-2.7-0.8c-0.3,0.1-0.6,0.4-0.9,0.7c-0.3-0.2-0.8-0.4-1.3-0.5   c-1.4-1.8-3.8-5-3.5-10.6c0.5-7.7,7-13.3,15.3-13.3c8.3,0,14.7,5.6,15.3,13.3c0.4,5.2-2,8.2-3.6,10.1L62,84.9   c-0.5,0.1-1,0.2-1.3,0.5c-0.2-0.4-0.5-0.6-0.9-0.7c-1-0.4-2-0.1-2.7,0.8c-1.6,0.1-3.2,0.8-3.3,2.7c0,0.4,0,0.7,0.1,1.1   C52,89.3,48.4,89.2,46.8,89.2z M55,89.5C55,89.5,55,89.5,55,89.5c-0.2-0.4-0.3-0.8-0.3-1.3c0.1-1.1,1-1.5,1.8-1.7   c-0.3,0.8-0.5,2.2-0.4,4.2C55.7,90.4,55.3,90,55,89.5z M58.4,93.5c-0.2,0-0.9-0.2-1.2-1.6c-0.6-3.7,0.4-5.5,0.5-5.6   c0.2-0.4,0.6-0.8,1.1-0.8c0.2,0,0.3,0,0.5,0.1c0.3,0.1,0.5,0.4,0.6,0.7L59.3,93C59,93.4,58.7,93.6,58.4,93.5z M61,93.8   c-0.1,0-0.4-0.2-0.6-0.6l0.6-6.7c0.6-0.5,1.4-0.7,2.2-0.3c0.3,0.1,0.5,0.5,0.6,0.7c-0.2,2-0.7,5.5-1.5,6.2c0,0,0,0,0,0c0,0,0,0,0,0   C61.8,93.5,61.4,93.7,61,93.8z M67.6,89.4c0,0.9-0.5,3.8-3.7,4.4c-0.1,0-0.4-0.1-0.6-0.3c1.1-1.5,1.5-5.3,1.5-6.4   c0.3-0.2,0.7-0.4,1.3-0.4c0.2,0,0.5,0,0.7,0.1C67.2,86.9,67.7,87.9,67.6,89.4z M66.8,85.8c-0.3-0.1-0.5-0.1-0.8-0.1   c-0.6,0-1.1,0.2-1.5,0.4c-0.2-0.4-0.6-0.7-1-0.9c-0.1-0.1-0.3-0.1-0.4-0.1c1.6-2,3.9-5.2,3.6-10.6c-0.6-8.3-7.5-14.3-16.3-14.3   c-8.9,0-15.8,6-16.3,14.3c-0.4,5.4,1.8,8.8,3.3,10.7c-0.1,0-0.3,0.1-0.4,0.1c-0.4,0.2-0.7,0.5-1,0.9c-0.4-0.2-0.9-0.4-1.5-0.4   c-0.3,0-0.5,0-0.8,0.1c-1.8-1.1-5-4.1-7.2-6.9c1.2-1.4,5.1-6.9,1.9-18c-2.5-8.5-6.1-11-8.8-11.7c0.7-3.7,2.1-7.7,3-9.8h5   c0,0,0,0,0,0c0.3,0,0.5-0.2,0.5-0.5c0-0.1,0-0.1,0-0.2c0-0.1,0-0.2,0-0.4l-3.8-8.2c0,0,0,0,0,0l0-2.2l15.6,7.7c-0.2,0-0.4,0-0.6,0   c-5.8,0-10.5,4.7-10.5,10.5s4.7,10.5,10.5,10.5s10.5-4.7,10.5-10.5c0-2.6-1-5-2.6-6.8l3,1.5c0.1,0,0.1,0.1,0.2,0.1   c0.1,0,0.2,0,0.2-0.1l3.1-1.7c-1.7,1.9-2.7,4.3-2.7,7c0,5.8,4.7,10.5,10.5,10.5s10.5-4.7,10.5-10.5s-4.7-10.5-10.5-10.5   c-0.5,0-1,0-1.5,0.1l12.9-6.8l0,3.2c0,0.1,0.1,0.3,0.2,0.4c0.1,0.1,6,5.9,8.1,15.5c-2.7,0.3-7,2.5-9.4,12.3   c-2.8,11.2,1.4,16.6,2.7,17.9C72.7,80.8,68.8,84.5,66.8,85.8z M48.7,46.3c0,5.2-4.3,9.5-9.5,9.5c-5.2,0-9.5-4.3-9.5-9.5   c0-5.2,4.3-9.5,9.5-9.5C44.5,36.8,48.7,41.1,48.7,46.3z M61.6,36.8c5.2,0,9.5,4.3,9.5,9.5c0,5.2-4.3,9.5-9.5,9.5   c-5.2,0-9.5-4.3-9.5-9.5C52.1,41.1,56.3,36.8,61.6,36.8z M85.8,65.9C82.4,76,76.5,77.6,75.3,77.8c-0.9-0.9-5.2-6-2.5-17.1   c2.4-9.9,6.7-11.5,9-11.6c0.8,0,1.4,0.2,1.5,0.2c0.4,0.1,0.7,0.3,1.1,0.4C88.1,51.9,88.6,57.5,85.8,65.9z"></path><path d="M41.5,49.1c1.5,0,2.8-1.3,2.8-2.8c0-1.5-1.3-2.8-2.8-2.8c-1.5,0-2.8,1.3-2.8,2.8C38.7,47.9,40,49.1,41.5,49.1z M41.5,44.5   c1,0,1.8,0.8,1.8,1.8s-0.8,1.8-1.8,1.8c-1,0-1.8-0.8-1.8-1.8S40.5,44.5,41.5,44.5z"></path><path d="M58.4,49.1c1.5,0,2.8-1.3,2.8-2.8c0-1.5-1.3-2.8-2.8-2.8c-1.5,0-2.8,1.3-2.8,2.8C55.6,47.9,56.8,49.1,58.4,49.1z    M58.4,44.5c1,0,1.8,0.8,1.8,1.8s-0.8,1.8-1.8,1.8s-1.8-0.8-1.8-1.8S57.4,44.5,58.4,44.5z"></path><path d="M46.3,69.9c-0.2-0.2-0.5-0.2-0.7,0l-2.5,2.3l-2.7-2.3c-0.2-0.2-0.5-0.2-0.7,0c-0.2,0.2-0.2,0.5,0,0.7l3,2.6   c0.1,0.1,0.2,0.1,0.3,0.1c0.1,0,0.2,0,0.3-0.1l2.9-2.6C46.5,70.4,46.5,70.1,46.3,69.9z"></path><path d="M50.4,73.2c0.1,0.1,0.2,0.1,0.3,0.1c0.1,0,0.2,0,0.3-0.1l2.9-2.6c0.2-0.2,0.2-0.5,0-0.7c-0.2-0.2-0.5-0.2-0.7,0l-2.5,2.3   L48,69.9c-0.2-0.2-0.5-0.2-0.7,0c-0.2,0.2-0.2,0.5,0,0.7L50.4,73.2z"></path><path d="M54.1,79.1c-0.2-0.2-0.5-0.2-0.7,0l-2.5,2.3l-2.7-2.3c-0.2-0.2-0.5-0.2-0.7,0c-0.2,0.2-0.2,0.5,0,0.7l3,2.6   c0.1,0.1,0.2,0.1,0.3,0.1c0.1,0,0.2,0,0.3-0.1l2.9-2.6C54.2,79.6,54.2,79.3,54.1,79.1z"></path><path d="M50.2,75.3c0.2-0.2,0.2-0.5,0-0.7c-0.2-0.2-0.5-0.2-0.7,0L47,76.9l-2.7-2.3c-0.2-0.2-0.5-0.2-0.7,0c-0.2,0.2-0.2,0.5,0,0.7   l3,2.6c0.1,0.1,0.2,0.1,0.3,0.1c0.1,0,0.2,0,0.3-0.1L50.2,75.3z"></path><path d="M51.1,74.6c-0.2,0.2-0.2,0.5,0,0.7l3,2.6c0.1,0.1,0.2,0.1,0.3,0.1c0.1,0,0.2,0,0.3-0.1l2.9-2.6c0.2-0.2,0.2-0.5,0-0.7   c-0.2-0.2-0.5-0.2-0.7,0l-2.5,2.3l-2.7-2.3C51.6,74.4,51.3,74.4,51.1,74.6z"></path><path d="M58,73.2c0.1,0.1,0.2,0.1,0.3,0.1c0.1,0,0.2,0,0.3-0.1l2.9-2.6c0.2-0.2,0.2-0.5,0-0.7c-0.2-0.2-0.5-0.2-0.7,0l-2.5,2.3   l-2.7-2.3c-0.2-0.2-0.5-0.2-0.7,0c-0.2,0.2-0.2,0.5,0,0.7L58,73.2z"></path><path d="M50.1,53.1c-2.1,0-3.2,2.3-3.3,2.4c-0.1,0.2-0.1,0.4,0.1,0.5l3.1,3.8c0.1,0.1,0.2,0.2,0.4,0.2c0,0,0,0,0,0   c0.2,0,0.3-0.1,0.4-0.2l2.8-4c0.1-0.2,0.1-0.4,0-0.6C53.5,55,52.1,53.1,50.1,53.1z M50.3,58.6l-2.4-3c0.3-0.5,1.1-1.5,2.2-1.5   c1.1,0,2,0.9,2.5,1.3L50.3,58.6z"></path><path d="M14.6,55.4c0-0.3-0.3-0.5-0.6-0.4c-0.3,0-0.5,0.3-0.4,0.6c0,0.1,1.3,10.8,7.2,18.6c0.1,0.1,0.3,0.2,0.4,0.2   c0.1,0,0.2,0,0.3-0.1c0.2-0.2,0.3-0.5,0.1-0.7C15.9,66,14.6,55.5,14.6,55.4z"></path><path d="M84.7,52.1c-0.3,0-0.5,0.3-0.4,0.6c0,0.1,1.5,12-7,20.9c-0.2,0.2-0.2,0.5,0,0.7c0.1,0.1,0.2,0.1,0.3,0.1   c0.1,0,0.3-0.1,0.4-0.2c8.8-9.3,7.2-21.6,7.2-21.7C85.2,52.2,85,52,84.7,52.1z"></path></g></svg>