<svg height='100px' width='100px'  fill="#000000" xmlns="http://www.w3.org/2000/svg" xmlns:xlink="http://www.w3.org/1999/xlink" version="1.1" x="0px" y="0px" viewBox="0 0 100 100" enable-background="new 0 0 100 100" xml:space="preserve"><path fill="#000000" d="M50.657,8.446c-23.105,0-41.903,18.798-41.903,41.905c0,23.105,18.797,41.902,41.903,41.902  c23.11,0,41.912-18.797,41.912-41.902C92.569,27.244,73.768,8.446,50.657,8.446z M50.657,86.253  c-19.797,0-35.903-16.105-35.903-35.902c0-19.798,16.106-35.905,35.903-35.905c19.802,0,35.912,16.107,35.912,35.905  C86.569,70.147,70.459,86.253,50.657,86.253z"></path><path fill="#000000" d="M64.619,36.395c-1.172-1.172-3.07-1.171-4.242,0l-9.722,9.719l-9.722-9.719  c-1.172-1.171-3.071-1.171-4.243,0s-1.171,3.071,0,4.243l9.721,9.718l-9.721,9.718c-1.172,1.172-1.172,3.071,0,4.243  c0.586,0.586,1.354,0.879,2.122,0.879c0.768,0,1.535-0.293,2.121-0.878l9.722-9.72l9.722,9.72c0.586,0.585,1.354,0.878,2.121,0.878  s1.535-0.293,2.121-0.879c1.172-1.172,1.172-3.071,0-4.243l-9.721-9.718l9.721-9.718C65.791,39.466,65.791,37.567,64.619,36.395z"></path></svg>