<svg height='100px' width='100px'  fill="#3BB300" xmlns="http://www.w3.org/2000/svg" xmlns:xlink="http://www.w3.org/1999/xlink" version="1.1" x="0px" y="0px" viewBox="0 0 100 100" enable-background="new 0 0 100 100" xml:space="preserve"><g><g><g><path d="M70.697,39.701c-2.907-12.028-8.596-24.974-14.216-24.974c-0.278,0-0.556,0.033-0.823,0.097     c-1.225,0.296-2.2,1.229-2.916,2.744c-0.076,0.06-0.159,0.106-0.222,0.186c-3.146,4.022-14.412,17.306-27.265,20.412L15.435,40.7     c-0.039,0.009-0.077,0.021-0.115,0.033c-3.009,0.827-5.549,2.72-7.184,5.362c-1.71,2.766-2.23,6.034-1.463,9.205     c0.767,3.17,2.722,5.841,5.506,7.52c2.771,1.672,6.048,2.169,9.225,1.402l2.036-0.492c0,0,0.001,0,0.002,0l0.001,0l2.449-0.592     l8.126,16.697c1.058,2.172,3.24,3.438,5.509,3.438c0.897,0,1.808-0.197,2.667-0.615c3.031-1.477,4.297-5.144,2.821-8.176     l-6.57-13.5c11.731-0.099,23.711,5.353,26.449,6.681c0.98,0.73,1.973,1.135,2.964,1.135c0.278,0,0.556-0.033,0.823-0.098     c2.594-0.627,4.085-4.076,4.312-9.975C73.197,53.428,72.382,46.672,70.697,39.701z M20.792,61.695     c-2.505,0.607-5.088,0.215-7.271-1.102c-2.184-1.317-3.72-3.415-4.321-5.905c-0.602-2.49-0.195-5.058,1.148-7.228     c1.323-2.141,3.406-3.66,5.872-4.281l0.866-0.21l4.481,18.538L20.792,61.695z M41.056,80.32c-1.742,0.848-3.853,0.12-4.7-1.623     l-2.949-6.059l6.409-2.895l2.861,5.878C43.526,77.363,42.798,79.471,41.056,80.32z M38.678,67.404l-6.409,2.895l-3.789-7.786     l3.01-0.728c1.351-0.326,2.733-0.541,4.129-0.667L38.678,67.404z M30.878,59.258l-6.784,1.639l-4.481-18.539l6.255-1.515     c10.808-2.612,20.417-11.869,25.586-17.701c-0.046,0.531-0.084,1.079-0.107,1.657c-0.107,2.758,0.069,5.917,0.495,9.291     c0.006,0.048-0.006,0.094,0.005,0.143c0.004,0.016,0.016,0.027,0.02,0.043c0.392,3.051,0.984,6.273,1.776,9.548     c0.776,3.211,1.752,6.486,2.87,9.564c0.006,0.061-0.008,0.119,0.007,0.18c0.043,0.177,0.127,0.328,0.23,0.465     c1.283,3.438,2.746,6.592,4.308,9.1C54.066,60.36,41.753,56.628,30.878,59.258z M54.622,35.237     c1.959,0.539,4.284,3.213,5.269,7.284c0.977,4.046,0.149,7.465-1.333,8.859c-0.85-2.446-1.662-5.163-2.388-8.168     C55.511,40.486,54.997,37.805,54.622,35.237z M70.396,58.625c-0.189,4.871-1.304,7.301-2.326,7.548     c-0.068,0.017-0.138,0.024-0.212,0.024c-0.23,0-0.486-0.071-0.764-0.208c-0.109-0.137-0.245-0.255-0.41-0.341     c-0.054-0.028-0.194-0.101-0.404-0.205c-1.881-1.551-4.42-5.476-6.779-11.51c2.93-1.8,4.207-6.688,2.917-12.024     c-1.297-5.364-4.683-9.147-8.139-9.372c-0.3-2.763-0.423-5.352-0.335-7.639c0.188-4.871,1.303-7.3,2.325-7.547     c0.068-0.017,0.138-0.024,0.212-0.024c2.507,0,8.112,8.185,11.689,22.985C69.801,47.057,70.591,53.56,70.396,58.625z"></path><path d="M80.626,38.899c-0.574-0.012-1.091-0.407-1.234-0.991c-0.171-0.697,0.256-1.401,0.953-1.572l8.494-2.084     c0.696-0.172,1.401,0.256,1.572,0.953c0.171,0.697-0.256,1.401-0.953,1.572l-8.494,2.084     C80.851,38.889,80.737,38.902,80.626,38.899z"></path><path d="M74.191,24.693c-0.348-0.015-0.689-0.17-0.933-0.456c-0.466-0.547-0.399-1.368,0.148-1.833l7.659-6.514     c0.546-0.464,1.368-0.399,1.832,0.148c0.466,0.547,0.399,1.368-0.148,1.833l-7.659,6.514     C74.83,24.607,74.508,24.707,74.191,24.693z"></path><path d="M92.061,56.782c-0.171,0.029-0.351,0.025-0.532-0.02l-9.416-2.326c-0.698-0.172-1.122-0.877-0.95-1.573     c0.17-0.697,0.873-1.126,1.573-0.95l9.416,2.326c0.698,0.172,1.122,0.877,0.95,1.573C92.976,56.329,92.555,56.697,92.061,56.782z     "></path></g></g></g></svg>