<svg height='100px' width='100px'  fill="#3BB300" xmlns="http://www.w3.org/2000/svg" xmlns:xlink="http://www.w3.org/1999/xlink" version="1.1" x="0px" y="0px" viewBox="0 0 512 512" enable-background="new 0 0 512 512" xml:space="preserve"><g><path d="M387.35,333.001c-10.405,0-19.585,5.231-25.064,13.203c3.279,2.008,6.467,4.041,9.519,6.106   c9.74,6.588,15.325,14.68,15.264,25.49c-0.03,5.329,0.077,10.66,0.064,15.989c0.073,0.001,0.145,0.005,0.218,0.005   c16.788,0,30.397-13.609,30.397-30.397C417.747,346.609,404.138,333.001,387.35,333.001z"></path><path d="M471.025,320.429c-0.215-0.48-0.415-0.949-0.657-1.398c-4.054-7.503-10.714-11.329-19.322-11.406   c-8.521-0.073-17.028,0.209-25.702,0.209c-0.006-0.02-0.002,0.167-0.002,0.167H420v-3.701c0-10.182-7.442-18.512-17.478-19.104   c-0.125-0.004,0.007-0.004-0.124-0.004c-5.289-0.018-10.458-0.028-15.75-0.028c-4.992,0-9.916,0.01-14.908,0.032   c-0.754,0.004-1.468,0.043-2.207,0.119c-0.008,0,0.065,0.004,0.055,0.004C360.182,286.53,353,294.567,353,304.299V308h-3.713   c-0.004,0-0.004-0.186-0.008-0.167c-8.312,0-16.506-0.126-24.707-0.112c-8.294,0.018-15.045,3.458-19.106,9.232   c16.535,7.543,33.353,15.67,48.553,24.378c0.046-0.071,0.085-0.16,0.132-0.23c7.105-10.823,19.382-18.065,33.16-18.065   c13.473-0.004,25.519,6.882,32.712,17.269c4.398,6.339,6.98,13.979,6.98,22.15c-0.001,21.887-17.787,39.709-39.624,39.716   c-0.156,0-0.309-0.01-0.464-0.012c-0.827,8.138-6.058,13.783-14.487,15.543c5.015,0.001,10.03,0.007,15.044,0.007   c21.248,0,42.491-0.01,63.734-0.029c8.181-0.011,15.271-4.499,19.12-11.122c1.125-2.43,1.674-5.139,1.674-7.989v-71.882   C472,324.495,471.705,322.389,471.025,320.429z"></path><g><path d="M364.795,356.516c-3.052-2.064-6.24-4.097-9.52-6.106c-2.696-1.651-5.45-3.286-8.267-4.9    c-15.2-8.708-32.018-16.863-48.553-24.406c-10.801-4.927-21.477-9.597-31.489-13.99c-3.398-1.491-4.833-3.22-4.663-6.562    c0.305-6.009-0.081-12.157,0.16-18.171c0.111-2.768,1.022-5.381,1.57-8.381c-0.151,0-0.304,0-0.455,0    c0.534,0,1.018-1.355,1.399-2.185c0.01-0.022,0.02,0.013,0.03-0.008c3.979-8.505,8.965-16.478,13.625-24.72    c0.823-1.456,2.055-2.708,3.066-4.08c9.892-13.415,14.7-28.103,13.513-44.222c-0.166-2.261-0.663-4.867-2.078-6.615    c-3.951-4.88-2.705-10.022-1.898-15.214c1.72-11.074,2.497-22.13-0.424-33.155c-3.58-13.514-11.312-23.65-27.222-27.345    c-1.441-0.335-2.987-1.794-3.699-3.075c-8.826-15.887-27.271-24.301-47.243-23.978c-19.592-0.323-38.353,8.091-47.179,23.978    c-0.712,1.281-2.226,2.741-3.667,3.076c-15.909,3.695-23.626,13.831-27.206,27.345c-2.921,11.025-2.135,22.081-0.415,33.156    c0.806,5.192,2.057,10.337-1.895,15.216c-1.415,1.748-1.909,4.358-2.076,6.619c-1.187,16.119,3.621,30.814,13.514,44.229    c1.012,1.372,2.244,2.639,3.067,4.094c4.662,8.242,9.647,16.244,13.626,24.749c0.01,0.022,0.02-0.07,0.03-0.049    c0.381,0.83,0.865,2.185,1.399,2.185c-0.319,0-0.641,0-0.96,0c0.548,3,1.459,5.613,1.57,8.381    c0.241,6.014-0.145,12.103,0.16,18.112c0.169,3.342-1.265,5.101-4.663,6.592c-31.638,13.88-69.889,30.519-97.829,49.416    c-9.74,6.588-15.325,14.688-15.264,25.498c0.043,7.605-0.177,15.219,0.067,22.818c0.346,10.771,8.017,17.643,20.439,17.688    c45.498,0.166,99.66,0.091,145.159,0.028c0.634-0.001,2.052-0.103,2.052-0.283c0,0.18,1.299,0.282,1.933,0.283    c45.499,0.063,99.601,0.139,145.1-0.027c2.077-0.008,4.007-0.222,5.805-0.598c8.428-1.76,13.66-7.405,14.487-15.543    c0.052-0.508,0.1-1.018,0.117-1.546c0.073-2.274,0.095-4.55,0.101-6.826c0.013-5.328-0.094-10.66-0.064-15.989    C380.12,371.196,374.535,363.103,364.795,356.516z"></path></g></g></svg>