<svg height='100px' width='100px'  fill="#3BB300" xmlns:dc="http://purl.org/dc/elements/1.1/" xmlns:cc="http://creativecommons.org/ns#" xmlns:rdf="http://www.w3.org/1999/02/22-rdf-syntax-ns#" xmlns:svg="http://www.w3.org/2000/svg" xmlns="http://www.w3.org/2000/svg" xmlns:sodipodi="http://sodipodi.sourceforge.net/DTD/sodipodi-0.dtd" xmlns:inkscape="http://www.inkscape.org/namespaces/inkscape" viewBox="0 0 8.4666665 8.4666669" version="1.1" x="0px" y="0px"><g transform="translate(0,-288.53332)"><path style="" d="M 10 12 L 10 15 L 2 15 L 2 27 L 30 27 L 30 15 L 22 15 L 22 12 L 10 12 z M 11 13 L 21 13 L 21 26 L 20 26 L 20 19 L 12 19 L 12 26 L 11 26 L 11 13 z M 3 16 L 10 16 L 10 26 L 3 26 L 3 16 z M 22 16 L 29 16 L 29 26 L 22 26 L 22 16 z M 13 20 L 15.5 20 L 15.5 26 L 13 26 L 13 20 z M 16.5 20 L 19 20 L 19 26 L 16.5 26 L 16.5 20 z " transform="matrix(0.26458333,0,0,0.26458333,0,288.53332)" fill="#3BB300" stroke="none"></path><path style="" d="m 1.3229171,294.61874 v 0.52917 h -0.264589 v -0.52917 z" fill="#3BB300" stroke="none"></path><path style="" d="m 1.3229171,293.82499 v 0.52917 h -0.264589 v -0.52917 z" fill="#3BB300" stroke="none"></path><path style="" d="m 1.3229171,293.03124 v 0.52917 h -0.264589 v -0.52917 z" fill="#3BB300" stroke="none"></path><path style="" d="m 1.5874981,294.61874 v 0.52917 h 0.264581 v -0.52917 z" fill="#3BB300" stroke="none"></path><path style="" d="m 1.5874981,293.82499 v 0.52917 h 0.264581 v -0.52917 z" fill="#3BB300" stroke="none"></path><path style="" d="m 1.5874981,293.03124 v 0.52917 h 0.264581 v -0.52917 z" fill="#3BB300" stroke="none"></path><path style="" d="m 2.1166681,294.61874 v 0.52917 h 0.264581 v -0.52917 z" fill="#3BB300" stroke="none"></path><path style="" d="m 2.1166681,293.82499 v 0.52917 h 0.264581 v -0.52917 z" fill="#3BB300" stroke="none"></path><path style="" d="m 2.1166681,293.03124 v 0.52917 h 0.264581 v -0.52917 z" fill="#3BB300" stroke="none"></path><path style="" d="m 7.1437489,294.61874 v 0.52917 h 0.2645812 v -0.52917 z" fill="#3BB300" stroke="none"></path><path style="" d="m 7.1437489,293.82499 v 0.52917 h 0.2645812 v -0.52917 z" fill="#3BB300" stroke="none"></path><path style="" d="m 7.1437489,293.03124 v 0.52917 h 0.2645812 v -0.52917 z" fill="#3BB300" stroke="none"></path><path style="" d="m 6.8791669,294.61874 v 0.52917 H 6.6145791 v -0.52917 z" fill="#3BB300" stroke="none"></path><path style="" d="m 6.8791669,293.82499 v 0.52917 H 6.6145791 v -0.52917 z" fill="#3BB300" stroke="none"></path><path style="" d="m 6.8791669,293.03124 v 0.52917 H 6.6145791 v -0.52917 z" fill="#3BB300" stroke="none"></path><path style="" d="m 6.3499981,294.61874 v 0.52917 h -0.264582 v -0.52917 z" fill="#3BB300" stroke="none"></path><path style="" d="m 6.3499981,293.82499 v 0.52917 h -0.264582 v -0.52917 z" fill="#3BB300" stroke="none"></path><path style="" d="m 6.3499981,293.03124 v 0.52917 h -0.264582 v -0.52917 z" fill="#3BB300" stroke="none"></path><path style="" d="M 2.9104121,291.04687 H 3.175 v -0.57626 l -0.2645879,-0.0794 z" fill="#3BB300" stroke="none"></path><path style="" d="M 16 5 L 11 6.5 L 16 8 L 21 6.5 L 16 5 z M 16 6.0449219 L 17.519531 6.5 L 16 6.9550781 L 14.480469 6.5 L 16 6.0449219 z " transform="matrix(0.26458333,0,0,0.26458333,0,288.53332)" fill="#3BB300" stroke="none"></path><path style="" d="m 3.7041629,290.62936 v 0.5498 H 4.762495 v -0.5498 l 0.2645891,-0.0794 v 0.89376 H 3.439582 v -0.89376 z" fill="#3BB300" stroke="none"></path></g></svg>