<svg height='100px' width='100px'  fill="#000000" xmlns="http://www.w3.org/2000/svg" viewBox="0 0 64 64" x="0px" y="0px"><title>4. School</title><g data-name="Layer 9"><path d="M30.62,2.92A.64.64,0,0,0,30.8,3L31,3a1.05,1.05,0,0,0,.71-.29A1.05,1.05,0,0,0,32,2a1.05,1.05,0,0,0-.29-.71A1,1,0,0,0,30.8,1a.64.64,0,0,0-.18.06,1,1,0,0,0-.33.21A1.05,1.05,0,0,0,30,2a1.05,1.05,0,0,0,.29.71A1,1,0,0,0,30.62,2.92Z"></path><path d="M39.81,36.55l.06.08a1,1,0,0,0,.73.35,1,1,0,0,0,.65-.24,1,1,0,0,0,.12-1.44,1,1,0,1,0-1.56,1.25Z"></path><path d="M58.68,56.79l-14.9-18.5a1,1,0,0,0-1.56,1.25l14.9,18.51a1.8,1.8,0,0,1,.22,1.9,1.59,1.59,0,0,1-1.45.94H7.11A1.59,1.59,0,0,1,5.66,60a1.8,1.8,0,0,1,.22-1.9L28.16,30.38a4.59,4.59,0,0,0,.74-1.54,4.22,4.22,0,0,0,.1-.91V11h5V27.93a3.85,3.85,0,0,0,.86,2.47l2.6,3.23A1,1,0,0,0,39,32.37l-2.59-3.21a2,2,0,0,1-.41-.93c0-.1,0-.2,0-.3V11h.88A3.62,3.62,0,0,0,40.5,7.38V4.62A3.62,3.62,0,0,0,36.88,1H34a1,1,0,0,0,0,2h2.88A1.63,1.63,0,0,1,38.5,4.62V7.38A1.63,1.63,0,0,1,36.88,9H26.12A1.63,1.63,0,0,1,24.5,7.38V4.62A1.63,1.63,0,0,1,26.12,3H28a1,1,0,0,0,0-2H26.12A3.62,3.62,0,0,0,22.5,4.62V7.38A3.62,3.62,0,0,0,26.12,11H27V27.93a2,2,0,0,1-.05.44,2.12,2.12,0,0,1-.37.77L4.32,56.79a3.77,3.77,0,0,0-.46,4,3.59,3.59,0,0,0,3.25,2.08H55.89a3.59,3.59,0,0,0,3.25-2.08A3.77,3.77,0,0,0,58.68,56.79Z"></path><path d="M41.06,41.24a.89.89,0,0,0-.59-.32h0A90.91,90.91,0,0,1,29.24,39a12.14,12.14,0,0,1-3.14-1.28l-.11,0-.19-.07h-.38l-.18,0a.91.91,0,0,0-.17.09.88.88,0,0,0-.15.12l-.1.08-14,17.44A2.2,2.2,0,0,0,12.5,59h38a2.2,2.2,0,0,0,1.73-3.56L41.11,41.28S41.07,41.26,41.06,41.24Zm9.65,15.65a.2.2,0,0,1-.18.11h-38a.18.18,0,0,1-.17-.11.18.18,0,0,1,0-.21l13.51-16.8A13.38,13.38,0,0,0,28.76,41a88.29,88.29,0,0,0,11,1.87l10.9,13.84A.2.2,0,0,1,50.71,56.89Z"></path><circle cx="27" cy="48" r="2"></circle><circle cx="35" cy="51" r="4"></circle></g></svg>