<svg xmlns="http://www.w3.org/2000/svg" xmlns:xlink="http://www.w3.org/1999/xlink" version="1.1" x="0px" y="0px" viewBox="0 0 100 100" enable-background="new 0 0 100 100" xml:space="preserve"><path d="M94.6,40L50.5,13.5c-0.3-0.2-0.6-0.2-0.9,0L5.4,40C5.2,40.1,5,40.4,5,40.7s0.4,0.6,0.7,0.8L24,52.3v15.4  c0,0.5,0.1,0.9,0.6,0.9c0,0-0.1,0-0.1,0c0,0-0.1,0,0,0C37.4,69.4,45,74.8,49.2,86c0,0,0,0,0,0c0,0,0,0.1,0,0.1  c0,0.1,0.1,0.1,0.1,0.2c0,0,0,0,0.1,0.1c0.1,0.1,0.1,0.1,0.2,0.1c0,0,0,0,0,0c0,0,0,0,0,0c0.1,0,0.2,0.1,0.3,0.1s0.2,0,0.3-0.1  c0,0,0,0,0,0c0,0,0,0,0,0c0.1,0,0.1-0.1,0.2-0.1c0,0,0.1,0,0.1-0.1c0-0.1,0.1-0.1,0.1-0.2c0,0,0-0.1,0-0.1c0,0,0,0,0,0  c3.6-9.6,9.7-15,19.5-16.8l-0.9,7.4c-0.1,0.5,0.3,0.9,0.8,1c0,0,0.1,0,0.1,0c0.4,0,0.8-0.3,0.9-0.8l0-0.1c0,0.5,0.4,0.9,0.9,0.9  s0.9-0.4,0.9-0.9l0,0.1c0.1,0.4,0.4,0.8,0.9,0.8c0,0,0.1,0,0.1,0c0.5-0.1,0.8-0.5,0.8-1l-1-7.9c0.6-0.1,1.2-0.1,1.9-0.2c0,0,0,0,0,0  c0,0-0.2,0-0.2,0c0.5,0,0.6-0.4,0.6-0.9V52.3l18.3-10.8c0.3-0.2,0.6-0.4,0.6-0.8S94.8,40.1,94.6,40z M49.9,83.4  C45.3,73,38,67.8,25,66.9V53.4L49.4,68c0.1,0.1,0.3,0.1,0.5,0.1c0.2,0,0.3,0,0.4-0.1L71,55.5v5.3c0,0.3-0.8,0.9-0.8,1.5  c0,0.6,0.3,1.1,0.7,1.4l-0.5,3.6C60.4,69.1,53.9,74.2,49.9,83.4z M75,66.9c0,0-1,0.1-1.4,0.1l-0.4-3.2c0.4-0.3,0.7-0.8,0.7-1.4  c0-0.7-0.9-1.2-0.9-1.5v-6.4c0,0,0.1,0,0.1,0l1.9-1.1V66.9z M72.1,53L50.5,40c-0.4-0.3-1-0.1-1.2,0.3c-0.3,0.4-0.1,1,0.3,1.2  L70.3,54L50,66.2L7.6,40.7L50,15.3l42.4,25.4L72.1,53z"></path></svg>