<svg xmlns="http://www.w3.org/2000/svg" xmlns:xlink="http://www.w3.org/1999/xlink" version="1.1" x="0px" y="0px" viewBox="0 0 66 66" enable-background="new 0 0 66 66" xml:space="preserve"><g><path d="M31.324,6.539c0.666-0.088,0.511-1.086-0.129-0.992C17.09,7.378,6.179,19.19,5.597,33.518   c-0.011,0.276,0.204,0.509,0.479,0.521c0.007,0,0.014,0,0.021,0c0.268,0,0.488-0.211,0.5-0.479   C7.154,19.774,17.641,8.314,31.324,6.539z"></path><path d="M28.097,12.003c-0.162,0.225-0.111,0.537,0.112,0.698c0.222,0.161,0.536,0.112,0.698-0.112   c3.628-5.031,7.087-8.221,1.778-9.555l-7.984-2.018c-0.278-0.073-0.541,0.094-0.607,0.361c-0.068,0.268,0.094,0.54,0.361,0.607   C35.068,5.172,34.251,3.471,28.097,12.003z"></path><path d="M59.975,31.997c-0.271-0.035-0.527,0.149-0.566,0.424c-2.051,14.268-13.553,25.31-27.827,26.836   c-0.124,0.013-0.229,0.075-0.308,0.159l-0.32-0.158l7.591-7.716c0.193-0.197,0.191-0.514-0.006-0.707   c-0.196-0.192-0.513-0.192-0.707,0.006l-8.076,8.209c-0.112,0.114-0.163,0.276-0.137,0.435c0.027,0.158,0.128,0.294,0.272,0.364   l10.366,5.101c0.071,0.035,0.146,0.052,0.221,0.052c0.185,0,0.361-0.103,0.448-0.279c0.122-0.248,0.021-0.548-0.228-0.669   l-8.026-3.949c14.666-2.032,25.705-13.489,27.726-27.54C60.438,32.29,60.248,32.036,59.975,31.997z"></path><path d="M28.248,47.613c-0.01,0.285,0.225,0.538,0.54,0.516c1.551-0.124,3.581-0.272,5.144-0.385   c0.2-0.015,0.372-0.147,0.438-0.338c0.309-0.905,0.51-1.846,0.6-2.8c0.828-0.299,1.621-0.687,2.364-1.156l2.161,2.312   c0.233,0.248,0.573,0.183,0.744-0.016c1.123-1.305,2.245-2.608,3.368-3.925c0.13-0.151,0.157-0.365,0.069-0.544   c-0.501-1.022-1.146-1.972-1.92-2.824c0.316-0.646,0.585-1.339,0.803-2.068l3.576,0.113c0.27,0.02,0.537-0.222,0.516-0.536   c-0.125-1.72-0.252-3.476-0.387-5.162c-0.016-0.197-0.146-0.366-0.333-0.432c-1.021-0.358-2.091-0.568-3.185-0.626   c-0.191-0.797-0.467-1.559-0.819-2.277c0.639-0.603,0.994-0.931,2.367-2.212c0.217-0.205,0.21-0.552-0.018-0.745   c-1.313-1.122-2.616-2.243-3.919-3.376c-0.151-0.132-0.366-0.16-0.547-0.072c-0.853,0.415-1.663,0.941-2.413,1.565   c-0.756-0.453-1.58-0.827-2.46-1.117c0.018-0.745,0.04-1.31,0.093-2.897c0.009-0.31-0.261-0.544-0.536-0.515   c-1.724,0.125-3.437,0.25-5.161,0.387c-0.199,0.016-0.369,0.147-0.434,0.336c-0.271,0.79-0.457,1.602-0.555,2.42   c-0.989,0.247-1.903,0.644-2.746,1.155l-1.814-1.941c-0.245-0.262-0.581-0.169-0.741,0.015c-0.871,1.001-1.834,2.125-3.381,3.925   c-0.131,0.151-0.158,0.366-0.07,0.546c0.45,0.921,1.028,1.795,1.723,2.603c-0.307,0.721-0.556,1.486-0.743,2.286   c-1.146-0.04-2.298-0.08-3.441-0.11c-0.325,0.01-0.532,0.254-0.513,0.536l0.386,5.159c0.015,0.199,0.146,0.371,0.335,0.437   c1.029,0.356,2.107,0.566,3.211,0.625c0.176,0.797,0.427,1.577,0.749,2.327c-0.674,0.624-1.125,1.049-2.313,2.162   c-0.214,0.2-0.213,0.547,0.016,0.744c2.248,1.939,2.967,2.563,3.925,3.38c0.151,0.129,0.365,0.157,0.545,0.067   c0.742-0.365,1.436-0.8,2.068-1.294c0.82,0.504,1.77,0.912,2.794,1.163C28.308,45.669,28.303,45.895,28.248,47.613z M25.785,42.828   c-0.085-0.057-0.182-0.085-0.279-0.085c-0.114,0-0.229,0.039-0.32,0.116c-0.566,0.474-1.192,0.893-1.865,1.248   c-0.935-0.8-1.85-1.592-3.246-2.796c0.796-0.744,1.353-1.273,2.165-2.02c0.159-0.147,0.206-0.381,0.115-0.578   c-0.416-0.898-0.72-1.847-0.903-2.819c-0.044-0.232-0.244-0.402-0.482-0.407c-1.027-0.021-2.033-0.183-2.994-0.482l-0.319-4.273   c1,0.028,2.093,0.067,3.297,0.109c0.245,0.007,0.459-0.16,0.508-0.399c0.202-0.989,0.503-1.926,0.895-2.785   c0.083-0.181,0.05-0.395-0.084-0.542c-0.65-0.721-1.199-1.501-1.633-2.324c1.187-1.382,2.045-2.383,2.795-3.248l1.72,1.84   c0.168,0.178,0.438,0.209,0.642,0.073c0.926-0.617,1.972-1.081,3.113-1.32c0.215-0.045,0.375-0.227,0.395-0.445   c0.066-0.753,0.215-1.504,0.441-2.236c1.426-0.111,2.844-0.216,4.268-0.319c-0.03,0.891-0.065,1.852-0.083,2.728   c-0.005,0.226,0.142,0.426,0.357,0.49c1.055,0.314,2.025,0.755,2.887,1.312c0.188,0.122,0.435,0.104,0.603-0.045   c0.676-0.598,1.407-1.104,2.18-1.512c1.079,0.938,2.159,1.868,3.246,2.798c-0.757,0.707-1.496,1.392-2.234,2.093   c-0.164,0.155-0.203,0.4-0.097,0.599c0.453,0.843,0.783,1.762,0.981,2.733c0.047,0.229,0.247,0.395,0.48,0.399   c1.016,0.019,2.01,0.182,2.961,0.481c0.109,1.396,0.212,2.792,0.312,4.181l0.007,0.091l-3.411-0.107   c-0.244-0.003-0.441,0.146-0.5,0.37c-0.248,0.923-0.582,1.784-0.992,2.562c-0.101,0.19-0.067,0.425,0.082,0.58   c0.734,0.765,1.353,1.618,1.839,2.541c-0.93,1.087-1.857,2.167-2.786,3.245l-2.068-2.212c-0.168-0.18-0.441-0.21-0.647-0.071   c-0.859,0.588-1.798,1.052-2.788,1.378c-0.193,0.063-0.329,0.238-0.343,0.441c-0.058,0.872-0.217,1.732-0.473,2.563   c-1.023,0.076-2.651,0.192-4.259,0.318c0.023-0.762,0.05-1.695,0.084-2.44c0.012-0.246-0.158-0.463-0.399-0.513   C27.739,43.888,26.665,43.422,25.785,42.828z"></path><path d="M37.171,33.113c0-2.7-2.196-4.896-4.896-4.896s-4.896,2.196-4.896,4.896c0,2.699,2.196,4.896,4.896,4.896   S37.171,35.812,37.171,33.113z M36.171,33.113c0,2.149-1.747,3.896-3.896,3.896c-0.955,0-1.82-0.359-2.498-0.931l1.796-1.796   c0.233-0.232-0.119-0.588-0.354-0.354l-0.611,0.611c-0.012-0.026-0.011-0.056-0.032-0.078l-1.248-1.248l1.208-1.208l0.513,0.513   c0.097,0.097,0.255,0.098,0.354,0c0.098-0.098,0.098-0.256,0-0.354l-0.513-0.513l0.023-0.023c0.098-0.098,0.098-0.256,0-0.353   c-0.098-0.098-0.256-0.098-0.353,0l-0.024,0.023l-0.496-0.496l0.743-0.742l1.14,1.141c0.099,0.099,0.257,0.097,0.354,0   c0.098-0.098,0.098-0.256,0-0.354l-0.154-0.154l0.742-0.743l0.627,0.627c0.097,0.097,0.255,0.098,0.354,0   c0.098-0.098,0.098-0.256,0-0.354l-0.627-0.627l0.155-0.155c0.012-0.012,0.009-0.029,0.018-0.042   C34.993,29.882,36.171,31.355,36.171,33.113z M28.415,33.457c-0.01-0.115-0.035-0.226-0.035-0.344c0-0.044,0.011-0.085,0.013-0.129   l0.228,0.228l-0.18,0.18C28.424,33.41,28.426,33.436,28.415,33.457z M28.444,33.747c0.048,0.048,0.111,0.072,0.174,0.072   c0.064,0,0.128-0.024,0.177-0.073l0.18-0.18l1.248,1.248c0.021,0.021,0.052,0.02,0.078,0.032l-0.875,0.875l-0.135-0.135   C28.86,35.067,28.559,34.442,28.444,33.747z M30.428,29.704l0.002,0.002l-0.743,0.742l-0.123-0.123   C29.818,30.077,30.113,29.876,30.428,29.704z M32.145,29.23l0.366,0.366l-0.742,0.743l-0.645-0.645   c0.06-0.088,0.06-0.197-0.005-0.282C31.447,29.309,31.788,29.242,32.145,29.23z M29.237,30.705l0.946,0.946l-1.208,1.208   l-0.517-0.517C28.581,31.729,28.861,31.178,29.237,30.705z"></path><path d="M26.962,27.353l0.374-0.374l0.059,0.059c0.052,0.052,0.115,0.089,0.182,0.089c0.021,0,0.043-0.004,0.064-0.012   c0.091-0.032,0.14-0.096,0.149-0.192c0.134,0.039,0.27-0.043,0.306-0.177c0.036-0.134-0.043-0.271-0.177-0.306   c-0.013-0.003-0.028,0-0.042-0.002l0.151-0.151c0.098-0.098,0.098-0.256,0-0.354c-0.098-0.098-0.256-0.098-0.353,0l-0.339,0.339   l-0.497-0.496c-0.099-0.099-0.257-0.097-0.354,0c-0.098,0.098-0.098,0.256,0,0.354l0.497,0.496L26.608,27l-0.146-0.146   c-0.098-0.098-0.256-0.098-0.354,0c-0.098,0.098-0.098,0.256,0,0.354l0.146,0.146l-0.724,0.724L24.954,27.5   c-0.098-0.098-0.256-0.098-0.354,0c-0.098,0.098-0.098,0.256,0,0.354l0.577,0.577l-0.847,0.847c-0.098,0.098-0.098,0.256,0,0.354   c0.097,0.097,0.255,0.098,0.354,0l0.847-0.847l0.305,0.305c0.097,0.097,0.255,0.098,0.354,0c0.098-0.098,0.098-0.256,0-0.354   l-0.305-0.305l0.724-0.724l0.081,0.081c0.049,0.049,0.112,0.073,0.177,0.073c0.065,0,0.128-0.024,0.177-0.073   c0.098-0.098,0.098-0.256,0-0.354L26.962,27.353z"></path><path d="M37.096,37.171l0.362,0.362l-0.401,0.401l-0.254-0.254c-0.099-0.099-0.257-0.097-0.353,0c-0.098,0.098-0.098,0.256,0,0.353   l0.254,0.254l-0.885,0.885l-0.416-0.416c-0.099-0.099-0.257-0.097-0.354,0c-0.098,0.098-0.098,0.256,0,0.354l0.416,0.416   l-1.708,1.708c-0.158,0.158-0.044,0.427,0.177,0.427c0.064,0,0.128-0.024,0.177-0.073l1.708-1.708l0.504,0.503   c0.096,0.096,0.255,0.099,0.354,0c0.098-0.098,0.098-0.256,0-0.354l-0.504-0.503l0.885-0.885l0.282,0.281   c0.096,0.096,0.255,0.099,0.354,0c0.098-0.098,0.098-0.256,0-0.354l-0.282-0.281l0.401-0.401l0.206,0.206   c0.233,0.233,0.589-0.118,0.354-0.354l-0.207-0.206l0.642-0.642c0.098-0.098,0.098-0.256,0-0.354c-0.098-0.098-0.256-0.098-0.354,0   l-0.642,0.642l-0.362-0.362c-0.098-0.098-0.256-0.098-0.354,0C36.998,36.915,36.998,37.073,37.096,37.171z"></path></g></svg>