<svg xmlns="http://www.w3.org/2000/svg" data-name="Layer 1" viewBox="0 0 64 64" x="0px" y="0px"><path d="M32,42a6,6,0,1,0,6,6A6.006,6.006,0,0,0,32,42Zm0,10a4,4,0,1,1,4-4A4,4,0,0,1,32,52Z"></path><path d="M44.263,43.75h-2l1.418-1.417a1.742,1.742,0,0,0,0-2.456l-3.554-3.552a1.718,1.718,0,0,0-1.227-.51h0a1.728,1.728,0,0,0-1.229.509L36.25,37.74v-2A1.739,1.739,0,0,0,34.513,34H29.487a1.739,1.739,0,0,0-1.737,1.737v2l-1.416-1.416a1.728,1.728,0,0,0-1.229-.509h0a1.717,1.717,0,0,0-1.226.509l-3.556,3.554a1.742,1.742,0,0,0,0,2.456L21.74,43.75h-2A1.739,1.739,0,0,0,18,45.487v5.026a1.739,1.739,0,0,0,1.737,1.737h2l-1.418,1.417a1.742,1.742,0,0,0,0,2.456l3.554,3.552a1.718,1.718,0,0,0,1.227.51h0a1.728,1.728,0,0,0,1.229-.509L27.75,58.26v2A1.739,1.739,0,0,0,29.487,62h5.026a1.739,1.739,0,0,0,1.737-1.737v-2l1.416,1.416a1.728,1.728,0,0,0,1.229.509h0a1.717,1.717,0,0,0,1.226-.509l3.556-3.554a1.742,1.742,0,0,0,0-2.456L42.26,52.25h2A1.739,1.739,0,0,0,46,50.513V45.487A1.739,1.739,0,0,0,44.263,43.75ZM44,50.25H41.689a1.775,1.775,0,0,0-1.247,3.011L42.077,54.9,38.9,58.076l-1.633-1.633a1.746,1.746,0,0,0-1.907-.371l-.014.006a1.744,1.744,0,0,0-1.091,1.611V60h-4.5V57.689a1.717,1.717,0,0,0-1.025-1.582l-.08-.035a1.741,1.741,0,0,0-1.906.371l-1.634,1.633L21.923,54.9l1.636-1.635a1.775,1.775,0,0,0-1.248-3.01H20v-4.5h2.311a1.775,1.775,0,0,0,1.247-3.011l-1.635-1.634,3.182-3.181,1.633,1.633a1.748,1.748,0,0,0,1.907.371l.014-.006a1.744,1.744,0,0,0,1.091-1.611V36h4.5v2.311a1.717,1.717,0,0,0,1.025,1.582l.08.035a1.747,1.747,0,0,0,1.906-.371L38.9,37.924l3.182,3.181L40.441,42.74a1.775,1.775,0,0,0,1.248,3.01H44Z"></path><path d="M35.968,11.685A3.958,3.958,0,0,0,35,9.382V5a3,3,0,0,0-6,0V9.382a3.958,3.958,0,0,0-.968,2.3L19.083,28H16V26H14v6h2V30h1.986l-5.13,9.354A4.886,4.886,0,0,0,14,45.471V52h2V45.259L24.478,30H39.522L48,45.259V52h2V45.471a4.887,4.887,0,0,0,1.144-6.114Zm13.277,31.7L34.874,17.514A1,1,0,0,0,34,17H33V15.858A3.986,3.986,0,0,0,35.177,14.4L49.39,40.319A2.914,2.914,0,0,1,49.245,43.382ZM32,10a2,2,0,1,1-2,2A2,2,0,0,1,32,10Zm0-6a1,1,0,0,1,1,1V8.142a3.592,3.592,0,0,0-2,0V5A1,1,0,0,1,32,4ZM14.61,40.319,28.823,14.4A3.986,3.986,0,0,0,31,15.858V17H30a1,1,0,0,0-.874.514L14.755,43.382A2.914,2.914,0,0,1,14.61,40.319ZM25.589,28l5-9h2.822l5,9Z"></path><rect x="52" y="50" width="2" height="2"></rect><rect x="56" y="50" width="2" height="2"></rect><rect x="60" y="50" width="2" height="2"></rect><rect x="2" y="50" width="2" height="2"></rect><rect x="6" y="50" width="2" height="2"></rect><rect x="10" y="50" width="2" height="2"></rect></svg>