<svg xmlns="http://www.w3.org/2000/svg" xmlns:xlink="http://www.w3.org/1999/xlink" version="1.1" x="0px" y="0px" viewBox="0 0 248.386 237.183" style="enable-background:new 0 0 248.386 237.183;" xml:space="preserve"><g><path d="M105.515,62.662c11.97-20.954,34.515-35.089,60.374-35.089c38.383,0,69.5,31.116,69.5,69.501   c0,19.723-8.23,37.512-21.425,50.163c-6.337-8.93-26.571-16.635-34.302-19.322c-2.396-4.057-3.746-8.6,0.166-6.676   c5.811,2.863,16.889,0.285,14.674-4.584c-2.215-4.87,1.381-8.594,1.936-10.313c0.555-1.715,1.388-8.018,1.388-8.018   s7.474,4.297,5.814-2.291c-1.66-6.588-6.645-12.316-6.645-12.316s4.152-17.759-7.201-28.354   c-11.352-10.597-39.043-9.165-47.068,0.574c-8.029,9.739-9.965,22.911-3.602,37.806c4.902,11.461,5.857,22.411-1.781,30.374   c-11.158-2.129-15.351,8.805-16.398,14.027c-0.58,2.899-0.707,7.156-0.314,11.65c-2.206-1.896-4.304-3.916-6.257-6.072   c-1.728,4.213-5.435,7.379-9.938,8.371c15.105,16.861,37.037,27.479,61.455,27.479c45.561,0,82.496-36.936,82.496-82.497   c0-45.562-36.935-82.497-82.496-82.497c-28.833,0-54.197,14.803-68.946,37.213C99.82,54.307,102.815,57.798,105.515,62.662z    M150.712,62.985h33.666v3h-33.666V62.985z M150.712,70.985h33.666v3h-33.666V70.985z M150.712,78.985h33.666v3h-33.666V78.985z    M150.712,86.985h16.832v3h-16.832V86.985z"></path><path d="M30.954,147.105v-20.68l2,0.842v97.551c0,6.832,5.539,12.365,12.365,12.365c5.281,0,9.778-3.318,11.549-7.982   c0.518-1.363,0.815-2.838,0.815-4.383v-90.271h4.635v90.271c0,6.832,5.537,12.365,12.365,12.365   c6.826,0,12.363-5.533,12.363-12.365V74.815c3.467,7.1,6.999,20.703,6.965,44.92c0,5.516-0.178,11.572-0.568,18.223   c-0.26,4.41,3.105,8.197,7.519,8.455c0.159,0.008,0.317,0.014,0.474,0.014c4.205-0.002,7.73-3.281,7.98-7.533   c0.406-6.934,0.594-13.301,0.594-19.158c-0.012-22.659-2.767-37.665-6.877-48.045c-4.056-10.339-9.855-16.174-15.234-18.842   c-3.416-1.722-6.414-2.11-8.221-2.133c-0.119-0.005-0.238-0.017-0.359-0.017H52.76c0.005,0.219,0.008,0.476,0.009,0.806   c-0.016,3.917-0.447,15.505-5.408,28.774l-5.538-2.332c4.511-12.225,4.959-22.988,4.946-26.442c0-0.36-0.004-0.62-0.009-0.806   h-6.077c-0.479,0-0.945,0.05-1.4,0.133l0.002,0.009c-3.088,0.348-5.766,1.558-8.109,3.105c-2.765,1.849-5.152,4.261-7.215,7.11   c-4.088,5.686-6.924,13.246-6.939,21.842c-0.01,6.436,1.672,13.41,5.572,20.1c3.891,6.699,9.926,13.073,18.375,18.721   c1.365,0.914,2.912,1.354,4.442,1.354c2.582,0,5.112-1.248,6.655-3.553c2.457-3.672,1.473-8.642-2.198-11.099   c-6.78-4.541-10.942-9.167-13.442-13.464c-2.49-4.309-3.392-8.327-3.404-12.059c-0.004-3.486,0.836-6.737,2.119-9.43   c1.264-2.686,3.018-4.777,4.396-5.836c0.425-0.342,0.788-0.558,1.065-0.699l0.185,2.257c-1.043,0.807-2.649,2.609-3.834,5.129   c-1.269,2.659-1.935,5.62-1.933,8.576c0.009,1.966,0.291,3.88,0.845,5.772l3.567-8.473l30.988,13.051L53.77,132.779L22.782,119.73   l3.461-8.217c-2.065-2.406-3.869-4.91-5.383-7.512c-3.832-6.578-5.852-13.877-5.838-21.107c0.013-8.29,2.611-16.461,7.313-23.006   c2.271-3.139,4.871-5.695,7.729-7.605c2.847-1.881,6.138-3.07,9.055-3.463l0.002,0.017c0.51-0.083,1.029-0.138,1.563-0.138h14.631   c-5.286-1.128-14.396-2.855-20.277-2.773c-1.518,0.021-2.824,0.161-3.789,0.465c-6.332,2-24,14-30.5,49.5   C-4.14,122.583,15.989,143.48,30.954,147.105z"></path><circle cx="60" cy="22.5" r="22.5"></circle><rect x="50.687" y="82.66" transform="matrix(0.3892 -0.9211 0.9211 0.3892 -54.9484 105.1936)" width="2.326" height="22.744"></rect><rect x="48.88" y="86.947" transform="matrix(0.3871 -0.922 0.922 0.3871 -59.9825 106.3997)" width="2.326" height="22.744"></rect></g></svg>