<svg xmlns="http://www.w3.org/2000/svg" xmlns:xlink="http://www.w3.org/1999/xlink" version="1.1" x="0px" y="0px" viewBox="0 0 100 100" style="enable-background:new 0 0 100 100;" xml:space="preserve"><g><path d="M23.8,58c-2.1,1.6-3.9,3.5-5.6,5.6l-0.5,0.7l18,18l0.7-0.5c2.1-1.6,3.9-3.5,5.6-5.6l0.6-0.7L24.5,57.4L23.8,58z M35.9,79.6   L20.4,64.1c1.2-1.4,2.5-2.8,4-4l15.5,15.5C38.7,77,37.4,78.4,35.9,79.6z"></path><path d="M34.2,52.6c-2.1,0.6-4.1,1.4-5.9,2.4c-0.6,0.3-1.1,0.7-1.8,1.1l-1,0.7l17.8,17.8l0.7-1c0.4-0.7,0.8-1.3,1.1-1.8h0   c1-1.8,1.8-3.8,2.4-5.9l0.2-0.6L34.8,52.5L34.2,52.6z M43.3,70.7c-0.1,0.2-0.2,0.4-0.4,0.6L28.6,57.1c0.2-0.1,0.4-0.3,0.6-0.4   c1.5-0.8,3.2-1.5,4.9-2l11.1,11.1C44.8,67.6,44.1,69.2,43.3,70.7z"></path><path d="M90.7,23.3c-0.8-0.8-1.9-1.1-2.9-0.8c-1,0.3-1.9,1-2.2,2.1c-0.7,2.5-1.7,4.8-3,7.1L68.3,17.4c2.2-1.3,4.6-2.3,7.1-3   c1.6-0.5,2.5-2.1,2.1-3.8c-0.5-1.6-2-2.5-3.6-2C58.7,13,48,26.5,47.1,42.2c-0.1,1.6-0.1,3.2-0.2,4.7c-1.5,0-3.1,0.1-4.7,0.2   C26.5,48,13,58.7,8.6,73.8c-0.4,1.6,0.4,3.1,2,3.6c0.8,0.2,1.6,0.1,2.3-0.2c0.7-0.4,1.2-1,1.5-1.8c0.7-2.5,1.7-4.8,3-7.1l14.2,14.2   c-2.2,1.3-4.6,2.3-7.1,3c-1,0.3-1.8,1.1-2.1,2.2c-0.3,1.1,0,2.2,0.8,3c0.5,0.5,1.2,0.8,2,0.8c0.3,0,0.6,0,0.8-0.1   C41.3,87,52,73.5,52.9,57.8c0.1-1.6,0.1-3.2,0.2-4.7c1.5,0,3.1-0.1,4.7-0.2C73.5,52,87,41.3,91.4,26.2   C91.7,25.2,91.4,24.1,90.7,23.3z M89.4,25.6c-4.1,14.3-16.9,24.5-31.8,25.2C55.8,51,54,51,52.2,51.1l-1.1,0l0,1.1   C51,54,51,55.8,50.9,57.7c-0.8,14.9-10.9,27.7-25.2,31.8c-0.2,0.1-0.6,0.1-0.9-0.2c-0.2-0.2-0.4-0.7-0.3-1c0.1-0.4,0.3-0.6,0.7-0.7   c3-0.9,5.9-2.2,8.6-3.9l1-0.7L17.1,65.1l-0.7,1c-1.7,2.7-3,5.6-3.9,8.6c-0.2,0.6-0.7,0.9-1.3,0.7c-0.5-0.2-0.8-0.6-0.6-1.1   c4.1-14.3,16.9-24.5,31.8-25.2c1.8-0.1,3.7-0.2,5.4-0.2l1.1,0l0-1.1c0.1-1.8,0.1-3.6,0.2-5.4c0.8-14.9,10.9-27.7,25.2-31.8   c0.5-0.1,1,0.1,1.1,0.6c0.1,0.3,0.1,0.6-0.1,0.8c-0.1,0.2-0.3,0.4-0.6,0.5c-3,0.9-5.9,2.2-8.6,3.9l-1,0.7l17.8,17.8l0.7-1   c1.7-2.7,3-5.6,3.9-8.6c0.1-0.4,0.4-0.6,0.7-0.7c0.4-0.1,0.8,0,1,0.3C89.5,25.1,89.5,25.4,89.4,25.6z"></path><path d="M63.5,18.3c-2.1,1.6-3.9,3.5-5.6,5.6l-0.6,0.7l18.1,18.1l0.7-0.5c2.1-1.6,3.9-3.5,5.6-5.6l0.5-0.7l-18-18L63.5,18.3z    M75.6,39.9L60.1,24.4c1.2-1.4,2.5-2.8,4-4l15.5,15.5C78.4,37.4,77,38.7,75.6,39.9z"></path><path d="M56.1,26.5c-0.4,0.7-0.8,1.3-1.1,1.8c-1,1.8-1.8,3.8-2.4,5.9l-0.2,0.6l12.8,12.8l0.6-0.2c2.1-0.6,4.1-1.4,5.9-2.4   c0.6-0.3,1.1-0.7,1.8-1.1l1-0.7L56.8,25.4L56.1,26.5z M71.4,42.9c-0.2,0.1-0.4,0.3-0.6,0.4c-1.5,0.8-3.2,1.5-4.9,2L54.7,34.2   c0.5-1.8,1.2-3.4,2-4.9c0.1-0.2,0.2-0.4,0.4-0.6L71.4,42.9z"></path><path d="M51.8,37.9c-0.5,3.2-0.6,6.4-0.7,9.9l0,1l1,0c3.5-0.1,6.7-0.2,9.9-0.7l1.9-0.3L52.1,36L51.8,37.9z M53.5,40.2l6.2,6.2   c-2.1,0.2-4.3,0.3-6.6,0.4C53.2,44.5,53.3,42.3,53.5,40.2z"></path><path d="M37.9,51.8L36,52.1L47.9,64l0.3-1.9c0.5-3.2,0.6-6.4,0.7-9.9l0-1l-1,0C44.3,51.2,41.1,51.3,37.9,51.8z M46.5,59.8l-6.2-6.2   c2.1-0.2,4.3-0.3,6.6-0.4C46.8,55.5,46.7,57.7,46.5,59.8z"></path></g></svg>