<svg height='100px' width='100px'  fill="#000000" xmlns="http://www.w3.org/2000/svg" viewBox="0 0 64 64" x="0px" y="0px"><title>Atom-chemistry-physics-science</title><g data-name="Layer 3"><path d="M57,32c2.89-5.39,3.48-10.79,1.07-15s-7.34-6.34-13.43-6.55A25.12,25.12,0,0,0,43.18,8.4,3.93,3.93,0,0,0,44,6a4,4,0,0,0-6.86-2.79A11.54,11.54,0,0,0,32.08,2c-4.84,0-9.25,3.25-12.48,8.51-6.13.18-11.11,2.37-13.52,6.55S4.26,26.62,7.15,32c-2.5,4.62-3.29,9.24-1.94,13.13A4,4,0,0,0,8,52a3.94,3.94,0,0,0,2.31-.75,19.21,19.21,0,0,0,9.38,2.37C22.91,58.81,27.28,62,32.08,62s9.16-3.18,12.38-8.34a23.67,23.67,0,0,0,4.2-.48A4,4,0,0,0,55.8,49.8,11.31,11.31,0,0,0,58,47.06C60.41,43,60,37.64,57,32Zm-.66-14c1.93,3.34,1.6,7.61-.51,12A38.2,38.2,0,0,0,49,22.32a39.25,39.25,0,0,0-3.32-9.82C50.55,12.89,54.39,14.74,56.31,18.06ZM43.4,51.66a34,34,0,0,1-8.26-1.21A49,49,0,0,0,41,47.58a49,49,0,0,0,5.46-3.67A33.42,33.42,0,0,1,43.4,51.66ZM40,45.84a47.42,47.42,0,0,1-8,3.66,46.59,46.59,0,0,1-8-3.66,48.21,48.21,0,0,1-7.12-5,48.44,48.44,0,0,1,0-17.48,46.63,46.63,0,0,1,7.15-5.07,47.15,47.15,0,0,1,8-3.68,47.15,47.15,0,0,1,8,3.68,47,47,0,0,1,7.19,5.09A47.67,47.67,0,0,1,48,32a48.58,48.58,0,0,1-.8,8.78A47.79,47.79,0,0,1,40,45.84ZM17.7,44a49.31,49.31,0,0,0,5.4,3.62A51.18,51.18,0,0,0,29,50.46a34.08,34.08,0,0,1-8.19,1.2A33.17,33.17,0,0,1,17.7,44Zm-3.08-5.31a33.52,33.52,0,0,1-5.19-6.54,34.54,34.54,0,0,1,5.16-6.57A50.2,50.2,0,0,0,14.17,32,49.61,49.61,0,0,0,14.62,38.65Zm6.1-26.22A33.52,33.52,0,0,1,29,13.65a50,50,0,0,0-5.89,2.89,52.54,52.54,0,0,0-5.44,3.64A34,34,0,0,1,20.72,12.43ZM46.5,20.22A52.36,52.36,0,0,0,41,16.54a50,50,0,0,0-5.89-2.89,33.74,33.74,0,0,1,8.29-1.22A34.12,34.12,0,0,1,46.5,20.22Zm3.08,5.36a34,34,0,0,1,5.13,6.51,34.12,34.12,0,0,1-5.15,6.5A50.41,50.41,0,0,0,50,32,50.17,50.17,0,0,0,49.58,25.58ZM40,4a2,2,0,1,1-2,2A2,2,0,0,1,40,4ZM32.08,4a9.49,9.49,0,0,1,4.08,1A3.59,3.59,0,0,0,36,6a4,4,0,0,0,5.62,3.65l.63.88a38.33,38.33,0,0,0-10.19,2,38.18,38.18,0,0,0-10.18-2C24.65,6.46,28.21,4,32.08,4ZM7.81,18.06c1.93-3.34,5.81-5.19,10.68-5.57a38.3,38.3,0,0,0-3.34,9.75,38.55,38.55,0,0,0-6.84,7.81C6.21,25.66,5.89,21.39,7.81,18.06ZM8,50a2,2,0,1,1,2-2A2,2,0,0,1,8,50Zm3.61-.31A3.88,3.88,0,0,0,12,48a4,4,0,0,0-4-4,3.74,3.74,0,0,0-1,.15c-.9-3-.34-6.48,1.38-10.07a38.61,38.61,0,0,0,6.8,7.8,38.34,38.34,0,0,0,3.37,9.72A16.66,16.66,0,0,1,11.61,49.69ZM32.08,60c-3.84,0-7.37-2.41-10.12-6.42a38.67,38.67,0,0,0,10-2,37.94,37.94,0,0,0,10.17,2C39.43,57.61,35.92,60,32.08,60ZM52,53a2,2,0,1,1,2-2A2,2,0,0,1,52,53Zm4.31-6.94a9.36,9.36,0,0,1-1.61,2A4,4,0,0,0,48,51a2.48,2.48,0,0,0,0,.27,22.57,22.57,0,0,1-2.39.32A38.59,38.59,0,0,0,49,41.82a38.53,38.53,0,0,0,6.76-7.77C58,38.62,58.17,42.84,56.31,46.06Z"></path><path d="M32,22A10,10,0,1,0,42,32,10,10,0,0,0,32,22Zm0,18a8,8,0,1,1,8-8A8,8,0,0,1,32,40Z"></path></g></svg>