<svg height='100px' width='100px'  fill="#4b4b4b" xmlns="http://www.w3.org/2000/svg" xmlns:xlink="http://www.w3.org/1999/xlink" version="1.1" x="0px" y="0px" viewBox="0 0 100 100" style="enable-background:new 0 0 100 100;" xml:space="preserve"><g><path d="M57.3,73c0.2,0.3,0.5,0.5,0.9,0.5h8.8l4.4,7.6c0.2,0.3,0.5,0.5,0.9,0.5s0.7-0.2,0.9-0.5l4.4-7.6h8.8c0.4,0,0.7-0.2,0.9-0.5   c0.2-0.3,0.2-0.7,0-1l-4.4-7.6l4.4-7.6c0.2-0.3,0.2-0.7,0-1c-0.2-0.3-0.5-0.5-0.9-0.5h-8.8l-4.4-7.6c-0.4-0.6-1.4-0.6-1.8,0   l-4.4,7.6h-8.8c-0.4,0-0.7,0.2-0.9,0.5c-0.2,0.3-0.2,0.7,0,1l4.4,7.6L57.3,72C57.1,72.3,57.1,72.7,57.3,73z M72.2,78.6l-2.9-5.1   h5.8L72.2,78.6z M68.1,71.5L64,64.4l4.1-7.1h8.2l4.1,7.1l-4.1,7.1H68.1z M84.5,71.5h-5.8l2.9-5.1L84.5,71.5z M84.5,57.3l-2.9,5.1   l-2.9-5.1H84.5z M72.2,50.2l2.9,5.1h-5.8L72.2,50.2z M59.9,57.3h5.8l-2.9,5.1L59.9,57.3z M62.8,66.4l2.9,5.1h-5.8L62.8,66.4z"></path><path d="M86.6,11.1l-1.6,3.3l-3.7,0.5c-0.4,0.1-0.7,0.3-0.8,0.7c-0.1,0.4,0,0.8,0.3,1l2.6,2.6l-0.6,3.6c-0.1,0.4,0.1,0.8,0.4,1   c0.3,0.2,0.7,0.3,1.1,0.1l3.3-1.7l3.3,1.7c0.1,0.1,0.3,0.1,0.5,0.1c0.2,0,0.4-0.1,0.6-0.2c0.3-0.2,0.5-0.6,0.4-1l-0.6-3.6l2.6-2.6   c0.3-0.3,0.4-0.7,0.3-1c-0.1-0.4-0.4-0.6-0.8-0.7L90,14.4l-1.6-3.3C88,10.4,86.9,10.4,86.6,11.1z M89.2,16.3l2.1,0.3l-1.5,1.5   c-0.2,0.2-0.4,0.6-0.3,0.9l0.4,2.1l-1.9-1c-0.1-0.1-0.3-0.1-0.5-0.1s-0.3,0-0.5,0.1l-1.9,1l0.4-2.1c0.1-0.3-0.1-0.7-0.3-0.9   l-1.5-1.5l2.1-0.3c0.3,0,0.6-0.3,0.8-0.6l1-1.9l1,1.9C88.6,16,88.9,16.3,89.2,16.3z"></path><path d="M99,34.7h-3.6v-1c0-0.2-0.2-0.4-0.4-0.5l-1.3-0.3c-0.7-0.2-1.5-0.4-2.2-0.5c-0.2-2.1-0.4-2.2-0.7-2.2   c-1.1-0.2-2.1-0.4-3.2-0.6c0.3-0.3,0.6-0.6,0.8-0.9c0.4-0.6,0.5-1.4,0-2c-0.3-0.4-0.7-0.6-1.1-0.7c-0.5-0.1-0.9,0-1.3,0.3   c-1.8,1.2-3.8,2-5.8,2.3c-1.7-0.2-3.5-0.3-5.2-0.3c-0.7-0.2-1.4-0.4-2-0.8c-3.7-1.8-6.2-5.8-6.2-9.9c0-1,0.1-2,0.4-3   c0.2-0.8,0.6-1.7,1.2-2.8c0.5-0.8,1.2-1.7,1.9-2.4c0.7-0.6,1.6-1.3,2.6-1.8c4-2,9.1-1.5,13,1.3c0.6,0.4,1.4,0.4,2,0   c0.4-0.3,0.6-0.7,0.7-1.1c0.1-0.5,0-0.9-0.3-1.3c-1-1.3-2.2-2.5-3.5-3.4c-1.3-0.9-2.8-1.6-4.5-2.1C79,0.2,77.3,0,75.5,0   c-1.6,0-3.2,0.4-5.1,1c-1.7,0.6-3.2,1.4-4.6,2.5c-1.4,1.1-2.6,2.4-3.7,3.8c-1,1.4-1.8,3-2.4,4.8c-0.5,1.6-0.8,3.4-0.8,5.3   c0,1.7,0.3,3.5,0.8,5.3c0.5,1.6,1.3,3.2,2.4,4.8c0.3,0.4,0.6,0.7,0.9,1.1c-0.7,0.1-1.4,0.1-2.1,0.2c-3.3,0.5-6.7,1.2-9.9,2   c-0.2,0-0.3,0.2-0.4,0.4L50,33.8l-0.8-2.7c0-0.2-0.2-0.3-0.4-0.4c-2.8-0.8-5.7-1.4-8.6-1.8v-0.7c0-0.2-0.1-0.4-0.3-0.5l-0.2-0.1   c-2.7-1-5.5-1.2-8.3-0.6c-0.2,0.1-0.4,0.3-0.4,0.5v0.4C30.4,28,29.7,28,29,28c-0.9,0-1.9,0-2.8,0v-2.8h9.6c0.6,0,1-0.5,1-1v-6.4   c0-0.6-0.5-1-1-1h-9.6V7.1c0-0.6-0.5-1-1-1h-6.4c-0.6,0-1,0.5-1,1v9.6H8.2c-0.6,0-1,0.5-1,1v6.4c0,0.6,0.5,1,1,1h9.6v3.4   c-2.9,0.4-5.9,0.8-8.7,1.5h0c-0.3,0.1-0.5,0.1-0.7,2.2c-0.7,0.2-1.5,0.3-2.2,0.5L5,33.2c-0.2,0.1-0.4,0.3-0.4,0.5v1H1   c-0.6,0-1,0.5-1,1V99c0,0.3,0.1,0.6,0.4,0.8S1,100,1.3,100l2.2-0.6c14.4-3.6,29.6-3.6,44,0l2.2,0.6c0.2,0,0.3,0,0.5,0l2.2-0.6   c14.4-3.6,29.6-3.6,44,0l2.2,0.6c0.1,0,0.2,0,0.2,0c0.2,0,0.4-0.1,0.6-0.2c0.2-0.2,0.4-0.5,0.4-0.8V35.7   C100,35.2,99.5,34.7,99,34.7z M5.6,93.2L6.5,93c3.4-0.9,6.9-1.6,10.5-2.1c7-0.9,14.2-0.9,21.2,0C41.6,91.4,45,92,48.4,93l0.6,1.1   l-0.1,0c-3.5-0.9-7-1.7-10.6-2.1c-3.6-0.5-7.2-0.7-10.7-0.7s-7.2,0.2-10.7,0.7c-3.6,0.5-7.1,1.2-10.6,2.1l-0.6,0.2V93.2z M51.6,93   c3.4-0.9,6.8-1.6,10.2-2.1c7-0.9,14.2-0.9,21.2,0c3.5,0.5,7,1.2,10.5,2.1l0.9,0.2v1l-0.6-0.2c-3.5-0.9-7-1.7-10.6-2.1   c-7.1-0.9-14.4-0.9-21.5,0c-3.6,0.5-7.1,1.2-10.6,2.1l-0.1,0L51.6,93z M93.5,33.8l0.9,0.2v58.1L93.8,92c-3.5-0.9-7-1.7-10.6-2.1   c-7.1-0.9-14.4-0.9-21.5,0c-3.3,0.4-6.5,1.1-9.7,1.9l0.4-0.9c3.1-0.8,5.5-1.5,8.7-2c3.3-0.5,6.6-0.7,9.9-0.8   c3.3-0.1,6.6,0.1,9.9,0.4c3.3,0.4,6.6,0.9,9.8,1.7c0.2,0,0.3,0,0.5-0.1c0.3-0.2,0.5-0.4,0.7-9.5C92,75.3,92,68.1,92,60.3   c0-7.8-0.1-15.1-0.2-20.4c-0.1-3-0.1-5.1-0.2-6.6C92.3,33.5,92.9,33.7,93.5,33.8z M61.7,22c-0.5-1.6-0.7-3.2-0.7-4.7   c0-1.7,0.3-3.2,0.7-4.7c0.5-1.5,1.2-3,2.1-4.2c0.9-1.2,2-2.4,3.2-3.4c1.2-0.9,2.6-1.7,4-2.2c1.6-0.5,3.1-0.8,4.5-0.9   c0.1,0,0.1,0,0.2,0c1.5,0,2.9,0.2,4.2,0.5c1.5,0.5,2.8,1.1,3.9,1.9c0.6,0.4,1.2,0.9,1.7,1.4c-4.3-2.3-9.3-2.5-13.4-0.4   c-1.2,0.6-2.3,1.4-3.1,2.1c-0.9,0.9-1.7,1.8-2.3,2.9c-0.5,0.9-1.1,2-1.4,3.3c-0.3,1.2-0.5,2.4-0.5,3.5c0,4.9,2.9,9.6,7.4,11.8   c4.1,2.1,9.2,1.9,13.5-0.4c-0.5,0.6-1.1,1.1-1.8,1.5c-1.2,0.8-2.5,1.4-3.9,1.9c-1.4,0.4-3,0.6-4.4,0.6c-1.4-0.1-2.9-0.3-4.5-0.9   c-2.8-1-5.4-2.9-7.3-5.6C62.9,24.9,62.2,23.4,61.7,22z M51.7,31.7c3.1-0.8,6.3-1.5,9.5-1.9c0.9-0.1,1.8-0.2,2.7-0.3   c1.9,2,4.2,3.4,6.6,4.3c1.7,0.6,3.4,0.9,5.1,1c0.1,0,0.1,0,0.2,0c1.6,0,3.3-0.2,4.9-0.6c1.6-0.5,3.1-1.2,4.5-2.2   c0.7-0.5,1.3-1,1.9-1.6c1.2,0.2,2.3,0.4,3.5,0.7c0.1,0.5,0.3,2.4,0.4,8.9C91,45.3,91,52.5,91,60.3c0,7.7-0.1,14.9-0.2,20.3   c-0.1,5.8-0.3,7.8-0.4,8.5c-3.1-0.7-6.3-1.2-9.5-1.6c-3.3-0.3-6.7-0.5-10-0.4c-3.3,0.1-6.7,0.3-10,0.8c-3.4,0.5-5.9,1.2-9.1,2   c-0.1,0-0.3,0.1-0.3,0.3l-1.1,2.3V35.8L51.7,31.7z M32.1,28.1c2.4-0.5,4.8-0.3,7.1,0.5v27.3l-3.2-3.2c-0.1-0.1-0.2-0.1-0.4-0.1   c-0.1,0-0.3,0-0.4,0.1l-3.2,3.2V28.1z M9.2,23.1v-4.3h9.6c0.6,0,1-0.5,1-1V8.2h4.3v9.6c0,0.6,0.5,1,1,1h9.6v4.3h-9.6   c-0.6,0-1,0.5-1,1v33h-4.3v-33c0-0.6-0.5-1-1-1H9.2z M9.2,40c0.1-6.6,0.3-8.4,0.4-8.9c2.7-0.6,5.4-1.1,8.2-1.4v28.6   c0,0.6,0.5,1,1,1h6.4c0.6,0,1-0.5,1-1V29c0.9,0,1.9-0.1,2.8,0c0.7,0,1.4,0.1,2.1,0.1v28.1c0,0.2,0.1,0.4,0.3,0.5   c0.2,0.1,0.4,0,0.6-0.1l3.7-3.7l3.7,3.7c0.1,0.1,0.2,0.1,0.4,0.1c0.1,0,0.1,0,0.2,0c0.2-0.1,0.3-0.3,0.3-0.5V30   c2.7,0.4,5.4,1,8,1.7l1.2,4.1v56.8l-1.1-2.3c-0.1-0.1-0.2-0.2-0.3-0.3c-3.2-0.9-5.7-1.6-9.1-2c-3.3-0.5-6.7-0.7-10-0.8   c-0.5,0-1,0-1.4,0c-2.9,0-5.7,0.2-8.6,0.5c-3.2,0.3-6.4,0.9-9.5,1.6c-0.1-0.7-0.2-2.7-0.4-8.5C9,75.3,9,68.1,9,60.3   C9,52.5,9,45.3,9.2,40z M5.6,34.1l0.9-0.2c0.6-0.2,1.2-0.3,1.9-0.4c-0.1,1.4-0.1,3.5-0.2,6.6C8,45.3,8,52.5,8,60.3   c0,7.8,0.1,15,0.2,20.3c0.2,9.1,0.4,9.3,0.7,9.5c0.1,0.1,0.3,0.1,0.5,0.1c3.2-0.8,6.5-1.3,9.8-1.7c3.3-0.3,6.6-0.5,9.9-0.4   c3.3,0.1,6.6,0.3,9.9,0.8c3.2,0.5,5.7,1.1,8.7,2l0.4,0.9c-3.2-0.8-6.5-1.5-9.7-1.9c-3.6-0.5-7.2-0.7-10.7-0.7s-7.2,0.2-10.7,0.7   c-3.6,0.5-7.1,1.2-10.6,2.1l-0.6,0.2V34.1z M98,97.7l-1-0.2c-14.7-3.7-30.3-3.7-45,0l-2,0.5l-2-0.5c-7.4-1.8-14.9-2.8-22.5-2.8   c-7.6,0-15.1,0.9-22.5,2.8l-1,0.2V36.7h2.6v56.1v2c0,0.2,0.1,0.3,0.2,0.4c0.1,0.1,0.3,0.1,0.4,0.1L6.5,95c3.4-0.9,6.9-1.6,10.5-2.1   c7-0.9,14.2-0.9,21.2,0c3.5,0.5,7,1.2,10.5,2.1l1.3,0.3c0,0,0,0,0.1,0c0,0,0,0,0.1,0s0,0,0.1,0c0,0,0,0,0.1,0l1.2-0.3   c3.4-0.9,6.9-1.6,10.5-2.1c7-0.9,14.2-0.9,21.2,0c3.5,0.5,7,1.2,10.5,2.1l1.3,0.3c0,0,0.1,0,0.1,0c0.1,0,0.2,0,0.3-0.1   c0.1-0.1,0.2-0.2,0.2-0.4v-2V36.7H98V97.7z"></path></g></svg>